Exetegue-Light.ufo
<glyph name="quotedbl" format="2">
  <advance width="250"/>
  <unicode hex="0022"/>
  <outline>
    <contour>
      <point x="60" y="500" type="line"/>
      <point x="90" y="500" type="line"/>
      <point x="95" y="650" type="line"/>
      <point x="95" y="740" type="line"/>
      <point x="55" y="740" type="line"/>
      <point x="55" y="650" type="line"/>
    </contour>
    <contour>
      <point x="160" y="500" type="line"/>
      <point x="190" y="500" type="line"/>
      <point x="195" y="650" type="line"/>
      <point x="195" y="740" type="line"/>
      <point x="155" y="740" type="line"/>
      <point x="155" y="650" type="line"/>
    </contour>
  </outline>
</glyph>
<glyph name="numbersign" format="2">
  <advance width="375"/>
  <unicode hex="0023"/>
  <outline>
    <contour>
      <point x="87" y="0" type="line"/>
      <point x="121" y="0" type="line"/>
      <point x="171" y="740" type="line"/>
      <point x="137" y="740" type="line"/>
    </contour>
    <contour>
      <point x="207" y="0" type="line"/>
      <point x="241" y="0" type="line"/>
      <point x="291" y="740" type="line"/>
      <point x="257" y="740" type="line"/>
    </contour>
    <contour>
      <point x="57" y="490" type="line"/>
      <point x="336" y="490" type="line"/>
      <point x="339" y="525" type="line"/>
      <point x="60" y="525" type="line"/>
    </contour>
    <contour>
      <point x="37" y="234" type="line"/>
      <point x="316" y="234" type="line"/>
      <point x="319" y="269" type="line"/>
      <point x="40" y="269" type="line"/>
    </contour>
  </outline>
</glyph>
<glyph name="dollar" format="2">
  <advance width="290"/>
  <unicode hex="0024"/>
  <outline>
    <component base="S.alt" yOffset="60"/>
    <contour>
      <point x="125" y="0" type="line"/>
      <point x="165" y="0" type="line"/>
      <point x="165" y="70" type="line"/>
      <point x="125" y="70" type="line"/>
    </contour>
    <contour>
      <point x="125" y="660" type="line"/>
      <point x="165" y="660" type="line"/>
      <point x="165" y="740" type="line"/>
      <point x="125" y="740" type="line"/>
    </contour>
  </outline>
  <guideline angle="0" x="0" y="625"/>
  <guideline angle="0" x="0" y="635"/>
  <guideline angle="0" x="0" y="105"/>
  <guideline angle="0" x="0" y="115"/>
</glyph>
<glyph name="ampersand" format="2">
  <advance width="300"/>
  <unicode hex="0026"/>
  <outline>
    <contour>
      <point x="150" y="355" type="line"/>
      <point x="93" y="355"/>
      <point x="55" y="390"/>
      <point x="55" y="480" type="curve" smooth="yes"/>
      <point x="55" y="625" type="line" smooth="yes"/>
      <point x="55" y="712"/>
      <point x="91" y="750"/>
      <point x="150" y="750" type="curve" smooth="yes"/>
      <point x="205" y="750"/>
      <point x="245" y="717"/>
      <point x="245" y="625" type="curve" smooth="yes"/>
      <point x="245" y="514" type="line"/>
      <point x="205" y="514" type="line"/>
      <point x="205" y="635" type="line" smooth="yes"/>
      <point x="205" y="686"/>
      <point x="189" y="715"/>
      <point x="150" y="715" type="curve" smooth="yes"/>
      <point x="111" y="715"/>
      <point x="95" y="686"/>
      <point x="95" y="635" type="curve" smooth="yes"/>
      <point x="95" y="470" type="line" smooth="yes"/>
      <point x="95" y="418"/>
      <point x="112" y="390"/>
      <point x="150" y="390" type="curve"/>
    </contour>
    <contour>
      <point x="150" y="355" type="line"/>
      <point x="112" y="355"/>
      <point x="95" y="327"/>
      <point x="95" y="275" type="curve" smooth="yes"/>
      <point x="95" y="105" type="line" smooth="yes"/>
      <point x="95" y="54"/>
      <point x="111" y="25"/>
      <point x="150" y="25" type="curve" smooth="yes"/>
      <point x="189" y="25"/>
      <point x="205" y="54"/>
      <point x="205" y="105" type="curve" smooth="yes"/>
      <point x="205" y="371" type="line"/>
      <point x="245" y="371" type="line"/>
      <point x="245" y="115" type="line" smooth="yes"/>
      <point x="245" y="23"/>
      <point x="205" y="-10"/>
      <point x="150" y="-10" type="curve" smooth="yes"/>
      <point x="91" y="-10"/>
      <point x="55" y="28"/>
      <point x="55" y="115" type="curve" smooth="yes"/>
      <point x="55" y="265" type="line" smooth="yes"/>
      <point x="55" y="355"/>
      <point x="93" y="390"/>
      <point x="150" y="390" type="curve"/>
    </contour>
    <contour>
      <point x="275" y="355" type="line"/>
      <point x="150" y="355" type="line"/>
      <point x="150" y="390" type="line"/>
      <point x="275" y="390" type="line"/>
    </contour>
  </outline>
  <guideline angle="0" x="0" y="125"/>
  <guideline angle="90" x="25" y="0"/>
  <guideline angle="90" x="125" y="0"/>
  <guideline angle="90" x="175" y="0"/>
  <guideline angle="90" x="275" y="0"/>
</glyph>
<glyph name="parenleft" format="2">
  <advance width="188"/>
  <unicode hex="0028"/>
  <outline>
    <contour>
      <point x="112" y="771" type="line"/>
      <point x="112" y="771"/>
      <point x="60" y="645"/>
      <point x="60" y="370" type="curve" smooth="yes"/>
      <point x="60" y="95"/>
      <point x="112" y="-31"/>
      <point x="112" y="-31" type="curve"/>
      <point x="148" y="-19" type="line"/>
      <point x="148" y="-19"/>
      <point x="100" y="97"/>
      <point x="100" y="370" type="curve" smooth="yes"/>
      <point x="100" y="643"/>
      <point x="148" y="759"/>
      <point x="148" y="759" type="curve"/>
    </contour>
  </outline>
  <guideline angle="0" x="0" y="740"/>
</glyph>
<glyph name="parenright" format="2">
  <advance width="188"/>
  <unicode hex="0029"/>
  <outline>
    <contour>
      <point x="76" y="771" type="line"/>
      <point x="76" y="771"/>
      <point x="128" y="645"/>
      <point x="128" y="370" type="curve" smooth="yes"/>
      <point x="128" y="95"/>
      <point x="76" y="-31"/>
      <point x="76" y="-31" type="curve"/>
      <point x="40" y="-19" type="line"/>
      <point x="40" y="-19"/>
      <point x="88" y="97"/>
      <point x="88" y="370" type="curve" smooth="yes"/>
      <point x="88" y="643"/>
      <point x="40" y="759"/>
      <point x="40" y="759" type="curve"/>
    </contour>
  </outline>
  <guideline angle="0" x="0" y="740"/>
</glyph>
<glyph name="plus" format="2">
  <advance width="300"/>
  <unicode hex="002B"/>
  <outline>
    <contour>
      <point x="25" y="365" type="line"/>
      <point x="275" y="365" type="line"/>
      <point x="275" y="399" type="line"/>
      <point x="25" y="399" type="line"/>
    </contour>
    <contour>
      <point x="130" y="230" type="line"/>
      <point x="170" y="230" type="line"/>
      <point x="170" y="534" type="line"/>
      <point x="130" y="534" type="line"/>
    </contour>
  </outline>
</glyph>
<glyph name="comma" format="2">
  <advance width="150"/>
  <unicode hex="002C"/>
  <outline>
    <contour>
      <point x="55" y="0" type="line"/>
      <point x="70" y="0" type="line"/>
      <point x="55" y="-60" type="line"/>
      <point x="75" y="-60" type="line"/>
      <point x="95" y="5" type="line"/>
      <point x="95" y="75" type="line"/>
      <point x="55" y="75" type="line"/>
    </contour>
  </outline>
</glyph>
<glyph name="hyphen" format="2">
  <advance width="200"/>
  <unicode hex="002D"/>
  <outline>
    <contour>
      <point x="25" y="365" type="line"/>
      <point x="175" y="365" type="line"/>
      <point x="175" y="399" type="line"/>
      <point x="25" y="399" type="line"/>
    </contour>
  </outline>
</glyph>
<glyph name="period" format="2">
  <advance width="150"/>
  <unicode hex="002E"/>
  <outline>
    <contour>
      <point x="55" y="0" type="line"/>
      <point x="95" y="0" type="line"/>
      <point x="95" y="75" type="line"/>
      <point x="55" y="75" type="line"/>
    </contour>
  </outline>
</glyph>
<glyph name="slash" format="2">
  <advance width="260"/>
  <unicode hex="002F"/>
  <outline>
    <contour>
      <point x="66" y="0" type="line"/>
      <point x="104" y="0" type="line"/>
      <point x="184" y="740" type="line"/>
      <point x="146" y="740" type="line"/>
    </contour>
  </outline>
</glyph>
<glyph name="one" format="2">
  <advance width="205"/>
  <unicode hex="0031"/>
  <outline>
    <contour>
      <point x="40" y="680" type="line"/>
      <point x="40" y="645" type="line"/>
      <point x="110" y="645" type="line"/>
      <point x="110" y="0" type="line"/>
      <point x="150" y="0" type="line"/>
      <point x="150" y="740" type="line"/>
      <point x="120" y="740" type="line"/>
      <point x="120" y="699"/>
      <point x="96" y="680"/>
      <point x="60" y="680" type="curve" smooth="yes"/>
    </contour>
  </outline>
</glyph>
<glyph name="two" format="2">
  <advance width="290"/>
  <unicode hex="0032"/>
  <outline>
    <contour>
      <point x="90" y="494" type="line"/>
      <point x="90" y="635" type="line" smooth="yes"/>
      <point x="90" y="693"/>
      <point x="111" y="715"/>
      <point x="145" y="715" type="curve" smooth="yes"/>
      <point x="180" y="715"/>
      <point x="200" y="692"/>
      <point x="200" y="635" type="curve" smooth="yes"/>
      <point x="200" y="538" type="line" smooth="yes"/>
      <point x="200" y="524"/>
      <point x="197" y="500"/>
      <point x="191" y="484" type="curve"/>
      <point x="64" y="122" type="line" smooth="yes"/>
      <point x="57" y="102"/>
      <point x="50" y="72"/>
      <point x="50" y="56" type="curve" smooth="yes"/>
      <point x="50" y="35" type="line"/>
      <point x="90" y="35" type="line"/>
      <point x="90" y="61" type="line"/>
      <point x="90" y="75"/>
      <point x="93" y="94"/>
      <point x="96" y="103" type="curve" smooth="yes"/>
      <point x="224" y="465" type="line" smooth="yes"/>
      <point x="233" y="490"/>
      <point x="240" y="522"/>
      <point x="240" y="538" type="curve" smooth="yes"/>
      <point x="240" y="625" type="line" smooth="yes"/>
      <point x="240" y="693"/>
      <point x="218" y="750"/>
      <point x="145" y="750" type="curve" smooth="yes"/>
      <point x="72" y="750"/>
      <point x="50" y="693"/>
      <point x="50" y="625" type="curve" smooth="yes"/>
      <point x="50" y="494" type="line"/>
    </contour>
    <contour>
      <point x="50" y="0" type="line"/>
      <point x="240" y="0" type="line"/>
      <point x="240" y="35" type="line"/>
      <point x="50" y="35" type="line"/>
    </contour>
  </outline>
  <guideline angle="0" x="0" y="625"/>
  <guideline angle="0" x="0" y="635"/>
  <guideline angle="0" x="0" y="105"/>
  <guideline angle="0" x="0" y="115"/>
  <guideline angle="90" x="50" y="0"/>
  <guideline angle="90" x="240" y="0"/>
  <guideline angle="90" x="20" y="0"/>
</glyph>
<glyph name="three" format="2">
  <advance width="300"/>
  <unicode hex="0033"/>
  <outline>
    <contour>
      <point x="150" y="355" type="line"/>
      <point x="207" y="355"/>
      <point x="245" y="390"/>
      <point x="245" y="480" type="curve" smooth="yes"/>
      <point x="245" y="625" type="line" smooth="yes"/>
      <point x="245" y="712"/>
      <point x="209" y="750"/>
      <point x="150" y="750" type="curve" smooth="yes"/>
      <point x="95" y="750"/>
      <point x="55" y="717"/>
      <point x="55" y="625" type="curve" smooth="yes"/>
      <point x="55" y="514" type="line"/>
      <point x="95" y="514" type="line"/>
      <point x="95" y="635" type="line" smooth="yes"/>
      <point x="95" y="686"/>
      <point x="111" y="715"/>
      <point x="150" y="715" type="curve" smooth="yes"/>
      <point x="189" y="715"/>
      <point x="205" y="686"/>
      <point x="205" y="635" type="curve" smooth="yes"/>
      <point x="205" y="470" type="line" smooth="yes"/>
      <point x="205" y="418"/>
      <point x="188" y="390"/>
      <point x="150" y="390" type="curve"/>
    </contour>
    <contour>
      <point x="150" y="355" type="line"/>
      <point x="188" y="355"/>
      <point x="205" y="327"/>
      <point x="205" y="275" type="curve" smooth="yes"/>
      <point x="205" y="105" type="line" smooth="yes"/>
      <point x="205" y="54"/>
      <point x="189" y="25"/>
      <point x="150" y="25" type="curve" smooth="yes"/>
      <point x="111" y="25"/>
      <point x="95" y="54"/>
      <point x="95" y="105" type="curve" smooth="yes"/>
      <point x="95" y="241" type="line"/>
      <point x="55" y="241" type="line"/>
      <point x="55" y="115" type="line" smooth="yes"/>
      <point x="55" y="23"/>
      <point x="95" y="-10"/>
      <point x="150" y="-10" type="curve" smooth="yes"/>
      <point x="209" y="-10"/>
      <point x="245" y="28"/>
      <point x="245" y="115" type="curve" smooth="yes"/>
      <point x="245" y="265" type="line" smooth="yes"/>
      <point x="245" y="355"/>
      <point x="207" y="390"/>
      <point x="150" y="390" type="curve"/>
    </contour>
    <contour>
      <point x="110" y="355" type="line"/>
      <point x="150" y="355" type="line"/>
      <point x="150" y="390" type="line"/>
      <point x="110" y="390" type="line"/>
    </contour>
  </outline>
</glyph>
<glyph name="four" format="2">
  <advance width="270"/>
  <unicode hex="0034"/>
  <outline>
    <contour>
      <point x="180" y="0" type="line"/>
      <point x="220" y="0" type="line"/>
      <point x="220" y="640" type="line"/>
      <point x="180" y="640" type="line"/>
    </contour>
    <contour>
      <point x="30" y="210" type="line"/>
      <point x="205" y="210" type="line"/>
      <point x="205" y="245" type="line"/>
      <point x="70" y="245" type="line"/>
      <point x="30" y="235" type="line"/>
    </contour>
    <contour>
      <point x="30" y="235" type="line"/>
      <point x="70" y="245" type="line"/>
      <point x="100" y="740" type="line"/>
      <point x="60" y="740" type="line"/>
    </contour>
  </outline>
</glyph>
<glyph name="five" format="2">
  <advance width="300"/>
  <unicode hex="0035"/>
  <outline>
    <contour>
      <point x="55" y="241" type="line"/>
      <point x="55" y="115" type="line" smooth="yes"/>
      <point x="55" y="23"/>
      <point x="95" y="-10"/>
      <point x="150" y="-10" type="curve" smooth="yes"/>
      <point x="209" y="-10"/>
      <point x="245" y="28"/>
      <point x="245" y="115" type="curve" smooth="yes"/>
      <point x="245" y="385" type="line" smooth="yes"/>
      <point x="245" y="483"/>
      <point x="198" y="510"/>
      <point x="155" y="510" type="curve" smooth="yes"/>
      <point x="129" y="510"/>
      <point x="110" y="502"/>
      <point x="95" y="487" type="curve"/>
      <point x="95" y="705" type="line"/>
      <point x="235" y="705" type="line"/>
      <point x="235" y="740" type="line"/>
      <point x="55" y="740" type="line"/>
      <point x="55" y="393" type="line"/>
      <point x="95" y="393" type="line"/>
      <point x="95" y="403" type="line"/>
      <point x="97" y="448"/>
      <point x="112" y="475"/>
      <point x="150" y="475" type="curve" smooth="yes"/>
      <point x="188" y="475"/>
      <point x="205" y="447"/>
      <point x="205" y="395" type="curve" smooth="yes"/>
      <point x="205" y="105" type="line" smooth="yes"/>
      <point x="205" y="54"/>
      <point x="189" y="25"/>
      <point x="150" y="25" type="curve" smooth="yes"/>
      <point x="111" y="25"/>
      <point x="95" y="54"/>
      <point x="95" y="105" type="curve" smooth="yes"/>
      <point x="95" y="241" type="line"/>
    </contour>
  </outline>
  <guideline angle="90" x="245" y="0"/>
</glyph>
<glyph name="six" format="2">
  <advance width="300"/>
  <unicode hex="0036"/>
  <outline>
    <contour>
      <point x="155" y="500" type="curve" smooth="yes"/>
      <point x="129" y="500"/>
      <point x="110" y="492"/>
      <point x="95" y="477" type="curve"/>
      <point x="95" y="635" type="line" smooth="yes"/>
      <point x="95" y="685"/>
      <point x="110" y="715"/>
      <point x="150" y="715" type="curve" smooth="yes"/>
      <point x="188" y="715"/>
      <point x="205" y="687"/>
      <point x="205" y="635" type="curve" smooth="yes"/>
      <point x="205" y="560" type="line"/>
      <point x="245" y="560" type="line"/>
      <point x="245" y="625" type="line" smooth="yes"/>
      <point x="245" y="715"/>
      <point x="207" y="750"/>
      <point x="150" y="750" type="curve" smooth="yes"/>
      <point x="89" y="750"/>
      <point x="55" y="709"/>
      <point x="55" y="625" type="curve" smooth="yes"/>
      <point x="55" y="115" type="line" smooth="yes"/>
      <point x="55" y="23"/>
      <point x="95" y="-10"/>
      <point x="150" y="-10" type="curve" smooth="yes"/>
      <point x="209" y="-10"/>
      <point x="245" y="28"/>
      <point x="245" y="115" type="curve" smooth="yes"/>
      <point x="245" y="375" type="line" smooth="yes"/>
      <point x="245" y="473"/>
      <point x="198" y="500"/>
    </contour>
    <contour>
      <point x="205" y="105" type="line" smooth="yes"/>
      <point x="205" y="54"/>
      <point x="189" y="25"/>
      <point x="150" y="25" type="curve" smooth="yes"/>
      <point x="111" y="25"/>
      <point x="95" y="54"/>
      <point x="95" y="105" type="curve" smooth="yes"/>
      <point x="95" y="393" type="line"/>
      <point x="97" y="438"/>
      <point x="112" y="465"/>
      <point x="150" y="465" type="curve" smooth="yes"/>
      <point x="188" y="465"/>
      <point x="205" y="437"/>
      <point x="205" y="385" type="curve" smooth="yes"/>
    </contour>
  </outline>
</glyph>
<glyph name="seven" format="2">
  <advance width="230"/>
  <unicode hex="0037"/>
  <outline>
    <contour>
      <point x="30" y="705" type="line"/>
      <point x="159" y="705" type="line"/>
      <point x="200" y="715" type="line"/>
      <point x="200" y="740" type="line"/>
      <point x="30" y="740" type="line"/>
    </contour>
    <contour>
      <point x="71" y="0" type="line"/>
      <point x="111" y="0" type="line"/>
      <point x="200" y="715" type="line"/>
      <point x="159" y="705" type="line"/>
    </contour>
  </outline>
  <guideline angle="90" x="190" y="0"/>
  <guideline angle="90" x="40" y="0"/>
</glyph>
<glyph name="eight" format="2">
  <advance width="300"/>
  <unicode hex="0038"/>
  <outline>
    <contour>
      <point x="150" y="-10" type="curve" smooth="yes"/>
      <point x="211" y="-10"/>
      <point x="245" y="31"/>
      <point x="245" y="115" type="curve" smooth="yes"/>
      <point x="245" y="290" type="line" smooth="yes"/>
      <point x="245" y="382"/>
      <point x="205" y="415"/>
      <point x="150" y="415" type="curve" smooth="yes"/>
      <point x="91" y="415"/>
      <point x="55" y="377"/>
      <point x="55" y="290" type="curve" smooth="yes"/>
      <point x="55" y="115" type="line" smooth="yes"/>
      <point x="55" y="25"/>
      <point x="93" y="-10"/>
    </contour>
    <contour>
      <point x="95" y="310" type="line" smooth="yes"/>
      <point x="95" y="361"/>
      <point x="111" y="390"/>
      <point x="150" y="390" type="curve" smooth="yes"/>
      <point x="189" y="390"/>
      <point x="205" y="361"/>
      <point x="205" y="310" type="curve" smooth="yes"/>
      <point x="205" y="105" type="line" smooth="yes"/>
      <point x="205" y="55"/>
      <point x="190" y="25"/>
      <point x="150" y="25" type="curve" smooth="yes"/>
      <point x="112" y="25"/>
      <point x="95" y="53"/>
      <point x="95" y="105" type="curve" smooth="yes"/>
    </contour>
    <contour>
      <point x="150" y="750" type="curve"/>
      <point x="89" y="750"/>
      <point x="55" y="709"/>
      <point x="55" y="625" type="curve" smooth="yes"/>
      <point x="55" y="525" type="line" smooth="yes"/>
      <point x="55" y="433"/>
      <point x="95" y="400"/>
      <point x="150" y="400" type="curve" smooth="yes"/>
      <point x="209" y="400"/>
      <point x="245" y="438"/>
      <point x="245" y="525" type="curve" smooth="yes"/>
      <point x="245" y="625" type="line" smooth="yes"/>
      <point x="245" y="715"/>
      <point x="207" y="750"/>
    </contour>
    <contour>
      <point x="205" y="505" type="line"/>
      <point x="205" y="454"/>
      <point x="189" y="425"/>
      <point x="150" y="425" type="curve" smooth="yes"/>
      <point x="111" y="425"/>
      <point x="95" y="454"/>
      <point x="95" y="505" type="curve" smooth="yes"/>
      <point x="95" y="635" type="line" smooth="yes"/>
      <point x="95" y="685"/>
      <point x="110" y="715"/>
      <point x="150" y="715" type="curve" smooth="yes"/>
      <point x="188" y="715"/>
      <point x="205" y="687"/>
      <point x="205" y="635" type="curve"/>
    </contour>
  </outline>
</glyph>
<glyph name="nine" format="2">
  <advance width="300"/>
  <unicode hex="0039"/>
  <outline>
    <contour>
      <point x="145" y="240" type="curve" smooth="yes"/>
      <point x="171" y="240"/>
      <point x="190" y="248"/>
      <point x="205" y="263" type="curve"/>
      <point x="205" y="105" type="line" smooth="yes"/>
      <point x="205" y="55"/>
      <point x="190" y="25"/>
      <point x="150" y="25" type="curve" smooth="yes"/>
      <point x="112" y="25"/>
      <point x="95" y="53"/>
      <point x="95" y="105" type="curve" smooth="yes"/>
      <point x="95" y="180" type="line"/>
      <point x="55" y="180" type="line"/>
      <point x="55" y="115" type="line" smooth="yes"/>
      <point x="55" y="25"/>
      <point x="93" y="-10"/>
      <point x="150" y="-10" type="curve" smooth="yes"/>
      <point x="211" y="-10"/>
      <point x="245" y="31"/>
      <point x="245" y="115" type="curve" smooth="yes"/>
      <point x="245" y="625" type="line" smooth="yes"/>
      <point x="245" y="717"/>
      <point x="205" y="750"/>
      <point x="150" y="750" type="curve" smooth="yes"/>
      <point x="91" y="750"/>
      <point x="55" y="712"/>
      <point x="55" y="625" type="curve" smooth="yes"/>
      <point x="55" y="365" type="line" smooth="yes"/>
      <point x="55" y="267"/>
      <point x="102" y="240"/>
    </contour>
    <contour>
      <point x="95" y="635" type="line" smooth="yes"/>
      <point x="95" y="686"/>
      <point x="111" y="715"/>
      <point x="150" y="715" type="curve" smooth="yes"/>
      <point x="189" y="715"/>
      <point x="205" y="686"/>
      <point x="205" y="635" type="curve" smooth="yes"/>
      <point x="205" y="347" type="line"/>
      <point x="203" y="302"/>
      <point x="188" y="275"/>
      <point x="150" y="275" type="curve" smooth="yes"/>
      <point x="112" y="275"/>
      <point x="95" y="303"/>
      <point x="95" y="355" type="curve" smooth="yes"/>
    </contour>
  </outline>
</glyph>
<glyph name="question" format="2">
  <advance width="290"/>
  <unicode hex="003F"/>
  <outline>
    <contour>
      <point x="162" y="306" type="line" smooth="yes"/>
      <point x="162" y="321"/>
      <point x="168" y="338"/>
      <point x="177" y="350" type="curve" smooth="yes"/>
      <point x="221" y="406" type="line"/>
      <point x="231" y="418"/>
      <point x="240" y="440"/>
      <point x="240" y="463" type="curve" smooth="yes"/>
      <point x="240" y="625" type="line" smooth="yes"/>
      <point x="240" y="693"/>
      <point x="218" y="750"/>
      <point x="145" y="750" type="curve" smooth="yes"/>
      <point x="72" y="750"/>
      <point x="50" y="693"/>
      <point x="50" y="625" type="curve" smooth="yes"/>
      <point x="50" y="494" type="line"/>
      <point x="90" y="494" type="line"/>
      <point x="90" y="635" type="line" smooth="yes"/>
      <point x="90" y="693"/>
      <point x="111" y="715"/>
      <point x="145" y="715" type="curve" smooth="yes"/>
      <point x="180" y="715"/>
      <point x="200" y="692"/>
      <point x="200" y="635" type="curve" smooth="yes"/>
      <point x="200" y="458" type="line" smooth="yes"/>
      <point x="200" y="445"/>
      <point x="195" y="433"/>
      <point x="188" y="425" type="curve"/>
      <point x="153" y="380" type="line" smooth="yes"/>
      <point x="138" y="361"/>
      <point x="128" y="332"/>
      <point x="128" y="308" type="curve" smooth="yes"/>
      <point x="130" y="175" type="line"/>
      <point x="160" y="175" type="line"/>
    </contour>
    <contour>
      <point x="125" y="0" type="line"/>
      <point x="165" y="0" type="line"/>
      <point x="165" y="75" type="line"/>
      <point x="125" y="75" type="line"/>
    </contour>
  </outline>
  <guideline angle="0" x="0" y="625"/>
  <guideline angle="0" x="0" y="635"/>
  <guideline angle="0" x="0" y="105"/>
  <guideline angle="0" x="0" y="115"/>
  <guideline angle="90" x="145" y="0"/>
</glyph>
<glyph name="A" format="2">
  <advance width="280"/>
  <unicode hex="0041"/>
  <outline>
    <contour>
      <point x="82" y="184" type="line"/>
      <point x="202" y="184" type="line"/>
      <point x="202" y="219" type="line"/>
      <point x="82" y="219" type="line"/>
    </contour>
    <contour>
      <point x="160" y="740" type="line"/>
      <point x="120" y="740" type="line"/>
      <point x="25" y="0" type="line"/>
      <point x="65" y="0" type="line"/>
      <point x="117" y="420" type="line" smooth="yes"/>
      <point x="135" y="568"/>
      <point x="138" y="664"/>
      <point x="138" y="664" type="curve"/>
      <point x="140" y="664" type="line"/>
      <point x="140" y="664"/>
      <point x="143" y="568"/>
      <point x="161" y="420" type="curve" smooth="yes"/>
      <point x="213" y="0" type="line"/>
      <point x="255" y="0" type="line"/>
    </contour>
  </outline>
</glyph>
<glyph name="B" format="2">
  <advance width="300"/>
  <unicode hex="0042"/>
  <outline>
    <contour>
      <point x="245" y="125" type="curve"/>
      <point x="245" y="265" type="line" smooth="yes"/>
      <point x="245" y="355"/>
      <point x="207" y="390"/>
      <point x="150" y="390" type="curve" smooth="yes"/>
      <point x="55" y="390" type="line"/>
      <point x="55" y="0" type="line"/>
      <point x="150" y="0" type="line" smooth="yes"/>
      <point x="207" y="0"/>
      <point x="245" y="35"/>
    </contour>
    <contour>
      <point x="95" y="355" type="line"/>
      <point x="150" y="355" type="line" smooth="yes"/>
      <point x="188" y="355"/>
      <point x="205" y="328"/>
      <point x="205" y="275" type="curve" smooth="yes"/>
      <point x="205" y="115" type="line" smooth="yes"/>
      <point x="205" y="62"/>
      <point x="188" y="35"/>
      <point x="150" y="35" type="curve" smooth="yes"/>
      <point x="95" y="35" type="line"/>
    </contour>
    <contour>
      <point x="240" y="615" type="line" smooth="yes"/>
      <point x="240" y="705"/>
      <point x="202" y="740"/>
      <point x="145" y="740" type="curve" smooth="yes"/>
      <point x="55" y="740" type="line"/>
      <point x="55" y="355" type="line"/>
      <point x="145" y="355" type="line" smooth="yes"/>
      <point x="202" y="355"/>
      <point x="240" y="390"/>
      <point x="240" y="480" type="curve" smooth="yes"/>
    </contour>
    <contour>
      <point x="95" y="705" type="line"/>
      <point x="145" y="705" type="line" smooth="yes"/>
      <point x="183" y="705"/>
      <point x="200" y="678"/>
      <point x="200" y="625" type="curve" smooth="yes"/>
      <point x="200" y="470" type="line" smooth="yes"/>
      <point x="200" y="417"/>
      <point x="183" y="390"/>
      <point x="145" y="390" type="curve" smooth="yes"/>
      <point x="95" y="390" type="line"/>
    </contour>
  </outline>
</glyph>
<glyph name="D" format="2">
  <advance width="300"/>
  <unicode hex="0044"/>
  <outline>
    <contour>
      <point x="245" y="125" type="curve"/>
      <point x="245" y="615" type="line" smooth="yes"/>
      <point x="245" y="705"/>
      <point x="207" y="740"/>
      <point x="150" y="740" type="curve" smooth="yes"/>
      <point x="55" y="740" type="line"/>
      <point x="55" y="0" type="line"/>
      <point x="150" y="0" type="line" smooth="yes"/>
      <point x="207" y="0"/>
      <point x="245" y="35"/>
    </contour>
    <contour>
      <point x="95" y="705" type="line"/>
      <point x="150" y="705" type="line" smooth="yes"/>
      <point x="188" y="705"/>
      <point x="205" y="678"/>
      <point x="205" y="625" type="curve" smooth="yes"/>
      <point x="205" y="115" type="line" smooth="yes"/>
      <point x="205" y="62"/>
      <point x="188" y="35"/>
      <point x="150" y="35" type="curve" smooth="yes"/>
      <point x="95" y="35" type="line"/>
    </contour>
  </outline>
  <guideline angle="0" x="0" y="125"/>
  <guideline angle="0" x="0" y="635"/>
  <guideline angle="90" x="25" y="0"/>
  <guideline angle="90" x="125" y="0"/>
  <guideline angle="90" x="175" y="0"/>
  <guideline angle="90" x="275" y="0"/>
</glyph>
<glyph name="E" format="2">
  <advance width="240"/>
  <unicode hex="0045"/>
  <outline>
    <contour>
      <point x="55" y="0" type="line"/>
      <point x="95" y="0" type="line"/>
      <point x="95" y="740" type="line"/>
      <point x="55" y="740" type="line"/>
    </contour>
    <contour>
      <point x="95" y="705" type="line"/>
      <point x="195" y="705" type="line"/>
      <point x="195" y="740" type="line"/>
      <point x="95" y="740" type="line"/>
    </contour>
    <contour>
      <point x="95" y="0" type="line"/>
      <point x="195" y="0" type="line"/>
      <point x="195" y="35" type="line"/>
      <point x="95" y="35" type="line"/>
    </contour>
    <contour>
      <point x="65" y="370" type="line"/>
      <point x="170" y="370" type="line"/>
      <point x="170" y="405" type="line"/>
      <point x="65" y="405" type="line"/>
    </contour>
  </outline>
  <guideline angle="0" x="0" y="387"/>
</glyph>
<glyph name="F" format="2">
  <advance width="220"/>
  <unicode hex="0046"/>
  <outline>
    <contour>
      <point x="55" y="0" type="line"/>
      <point x="95" y="0" type="line"/>
      <point x="95" y="740" type="line"/>
      <point x="55" y="740" type="line"/>
    </contour>
    <contour>
      <point x="95" y="705" type="line"/>
      <point x="185" y="705" type="line"/>
      <point x="185" y="740" type="line"/>
      <point x="95" y="740" type="line"/>
    </contour>
    <contour>
      <point x="65" y="365" type="line"/>
      <point x="170" y="365" type="line"/>
      <point x="170" y="400" type="line"/>
      <point x="65" y="400" type="line"/>
    </contour>
  </outline>
  <guideline angle="0" x="0" y="382"/>
</glyph>
<glyph name="H" format="2">
  <advance width="300"/>
  <unicode hex="0048"/>
  <outline>
    <contour>
      <point x="55" y="0" type="line"/>
      <point x="95" y="0" type="line"/>
      <point x="95" y="740" type="line"/>
      <point x="55" y="740" type="line"/>
    </contour>
    <contour>
      <point x="205" y="0" type="line"/>
      <point x="245" y="0" type="line"/>
      <point x="245" y="740" type="line"/>
      <point x="205" y="740" type="line"/>
    </contour>
    <contour>
      <point x="75" y="360" type="line"/>
      <point x="225" y="360" type="line"/>
      <point x="225" y="395" type="line"/>
      <point x="75" y="395" type="line"/>
    </contour>
  </outline>
</glyph>
<glyph name="I" format="2">
  <advance width="150"/>
  <unicode hex="0049"/>
  <outline>
    <contour>
      <point x="55" y="0" type="line"/>
      <point x="95" y="0" type="line"/>
      <point x="95" y="740" type="line"/>
      <point x="55" y="740" type="line"/>
    </contour>
  </outline>
</glyph>
<glyph name="K" format="2">
  <advance width="290"/>
  <unicode hex="004B"/>
  <outline>
    <contour>
      <point x="219" y="0" type="line"/>
      <point x="260" y="0" type="line"/>
      <point x="160" y="433" type="line"/>
      <point x="250" y="740" type="line"/>
      <point x="209" y="740" type="line"/>
      <point x="105" y="387" type="line" smooth="yes"/>
      <point x="97" y="361"/>
      <point x="91" y="324"/>
      <point x="91" y="324" type="curve"/>
      <point x="89" y="324" type="line"/>
      <point x="89" y="324"/>
      <point x="95" y="369"/>
      <point x="95" y="390" type="curve" smooth="yes"/>
      <point x="95" y="740" type="line"/>
      <point x="55" y="740" type="line"/>
      <point x="55" y="0" type="line"/>
      <point x="95" y="0" type="line"/>
      <point x="95" y="233" type="line"/>
      <point x="135" y="381" type="line"/>
    </contour>
  </outline>
</glyph>
<glyph name="L" format="2">
  <advance width="215"/>
  <unicode hex="004C"/>
  <outline>
    <contour>
      <point x="55" y="0" type="line"/>
      <point x="95" y="0" type="line"/>
      <point x="95" y="740" type="line"/>
      <point x="55" y="740" type="line"/>
    </contour>
    <contour>
      <point x="95" y="0" type="line"/>
      <point x="175" y="0" type="line"/>
      <point x="175" y="35" type="line"/>
      <point x="95" y="35" type="line"/>
    </contour>
  </outline>
</glyph>
<glyph name="M" format="2">
  <advance width="370"/>
  <unicode hex="004D"/>
  <outline>
    <contour>
      <point x="184" y="221" type="line"/>
      <point x="184" y="221"/>
      <point x="183" y="249"/>
      <point x="179" y="268" type="curve"/>
      <point x="105" y="740" type="line"/>
      <point x="65" y="740" type="line"/>
      <point x="65" y="0" type="line"/>
      <point x="105" y="0" type="line"/>
      <point x="105" y="0"/>
      <point x="105" y="317"/>
      <point x="105" y="358" type="curve" smooth="yes"/>
      <point x="105" y="427"/>
      <point x="103" y="495"/>
      <point x="98" y="547" type="curve"/>
      <point x="101" y="548" type="line"/>
      <point x="109" y="496"/>
      <point x="133" y="338"/>
      <point x="141" y="287" type="curve" smooth="yes"/>
      <point x="165" y="127" type="line"/>
      <point x="205" y="127" type="line"/>
      <point x="229" y="287" type="line" smooth="yes"/>
      <point x="237" y="338"/>
      <point x="261" y="496"/>
      <point x="269" y="548" type="curve"/>
      <point x="272" y="547" type="line"/>
      <point x="267" y="495"/>
      <point x="265" y="427"/>
      <point x="265" y="357" type="curve" smooth="yes"/>
      <point x="265" y="299"/>
      <point x="265" y="0"/>
      <point x="265" y="0" type="curve"/>
      <point x="305" y="0" type="line"/>
      <point x="305" y="740" type="line"/>
      <point x="265" y="740" type="line"/>
      <point x="191" y="268" type="line"/>
      <point x="187" y="248"/>
      <point x="186" y="221"/>
      <point x="186" y="221" type="curve"/>
    </contour>
  </outline>
  <guideline angle="90" x="95" y="0"/>
  <guideline angle="90" x="275" y="0"/>
  <guideline angle="90" x="185" y="0"/>
</glyph>
<glyph name="N" format="2">
  <advance width="310"/>
  <unicode hex="004E"/>
  <outline>
    <contour>
      <point x="92" y="577" type="line"/>
      <point x="215" y="0" type="line"/>
      <point x="255" y="0" type="line"/>
      <point x="255" y="740" type="line"/>
      <point x="215" y="740" type="line"/>
      <point x="215" y="358" type="line"/>
      <point x="215" y="258"/>
      <point x="221" y="184"/>
      <point x="221" y="184" type="curve"/>
      <point x="219" y="183" type="line"/>
      <point x="95" y="740" type="line"/>
      <point x="55" y="740" type="line"/>
      <point x="55" y="0" type="line"/>
      <point x="95" y="0" type="line"/>
      <point x="95" y="403" type="line"/>
      <point x="95" y="482"/>
      <point x="90" y="576"/>
      <point x="90" y="576" type="curve"/>
    </contour>
  </outline>
  <guideline angle="90" x="95" y="0"/>
  <guideline angle="90" x="215" y="0"/>
</glyph>
<glyph name="O" format="2">
  <advance width="300"/>
  <unicode hex="004F"/>
  <outline>
    <contour>
      <point x="150" y="-10" type="curve" smooth="yes"/>
      <point x="211" y="-10"/>
      <point x="245" y="31"/>
      <point x="245" y="115" type="curve" smooth="yes"/>
      <point x="245" y="625" type="line" smooth="yes"/>
      <point x="245" y="717"/>
      <point x="205" y="750"/>
      <point x="150" y="750" type="curve" smooth="yes"/>
      <point x="91" y="750"/>
      <point x="55" y="712"/>
      <point x="55" y="625" type="curve" smooth="yes"/>
      <point x="55" y="115" type="line" smooth="yes"/>
      <point x="55" y="25"/>
      <point x="93" y="-10"/>
    </contour>
    <contour>
      <point x="95" y="635" type="line" smooth="yes"/>
      <point x="95" y="686"/>
      <point x="111" y="715"/>
      <point x="150" y="715" type="curve" smooth="yes"/>
      <point x="189" y="715"/>
      <point x="205" y="686"/>
      <point x="205" y="635" type="curve" smooth="yes"/>
      <point x="205" y="105" type="line" smooth="yes"/>
      <point x="205" y="55"/>
      <point x="190" y="25"/>
      <point x="150" y="25" type="curve" smooth="yes"/>
      <point x="112" y="25"/>
      <point x="95" y="53"/>
      <point x="95" y="105" type="curve" smooth="yes"/>
    </contour>
  </outline>
  <guideline angle="0" x="0" y="125"/>
  <guideline angle="90" x="25" y="0"/>
  <guideline angle="90" x="125" y="0"/>
  <guideline angle="90" x="175" y="0"/>
  <guideline angle="90" x="275" y="0"/>
</glyph>
<glyph name="P" format="2">
  <advance width="300"/>
  <unicode hex="0050"/>
  <outline>
    <contour>
      <point x="245" y="385" type="curve"/>
      <point x="245" y="615" type="line" smooth="yes"/>
      <point x="245" y="705"/>
      <point x="207" y="740"/>
      <point x="150" y="740" type="curve" smooth="yes"/>
      <point x="55" y="740" type="line"/>
      <point x="55" y="260" type="line"/>
      <point x="150" y="260" type="line" smooth="yes"/>
      <point x="207" y="260"/>
      <point x="245" y="295"/>
    </contour>
    <contour>
      <point x="95" y="705" type="line"/>
      <point x="150" y="705" type="line" smooth="yes"/>
      <point x="188" y="705"/>
      <point x="205" y="678"/>
      <point x="205" y="625" type="curve" smooth="yes"/>
      <point x="205" y="375" type="line" smooth="yes"/>
      <point x="205" y="322"/>
      <point x="188" y="295"/>
      <point x="150" y="295" type="curve" smooth="yes"/>
      <point x="95" y="295" type="line"/>
    </contour>
    <contour>
      <point x="55" y="0" type="line"/>
      <point x="95" y="0" type="line"/>
      <point x="95" y="260" type="line"/>
      <point x="55" y="260" type="line"/>
    </contour>
  </outline>
  <guideline angle="90" x="55" y="0"/>
  <guideline angle="90" x="95" y="0"/>
</glyph>
<glyph name="R" format="2">
  <advance width="300"/>
  <unicode hex="0052"/>
  <outline>
    <contour>
      <point x="227" y="0" type="line"/>
      <point x="265" y="0" type="line"/>
      <point x="235" y="150" type="line" smooth="yes"/>
      <point x="216" y="247"/>
      <point x="195" y="300"/>
      <point x="195" y="300" type="curve"/>
      <point x="167" y="300" type="line"/>
    </contour>
    <contour>
      <point x="245" y="405" type="curve"/>
      <point x="245" y="615" type="line" smooth="yes"/>
      <point x="245" y="705"/>
      <point x="207" y="740"/>
      <point x="150" y="740" type="curve" smooth="yes"/>
      <point x="55" y="740" type="line"/>
      <point x="55" y="280" type="line"/>
      <point x="150" y="280" type="line" smooth="yes"/>
      <point x="207" y="280"/>
      <point x="245" y="315"/>
    </contour>
    <contour>
      <point x="95" y="705" type="line"/>
      <point x="150" y="705" type="line" smooth="yes"/>
      <point x="188" y="705"/>
      <point x="205" y="678"/>
      <point x="205" y="625" type="curve" smooth="yes"/>
      <point x="205" y="395" type="line" smooth="yes"/>
      <point x="205" y="342"/>
      <point x="188" y="315"/>
      <point x="150" y="315" type="curve" smooth="yes"/>
      <point x="95" y="315" type="line"/>
    </contour>
    <contour>
      <point x="55" y="0" type="line"/>
      <point x="95" y="0" type="line"/>
      <point x="95" y="280" type="line"/>
      <point x="55" y="280" type="line"/>
    </contour>
  </outline>
  <guideline angle="90" x="175" y="0"/>
  <guideline angle="90" x="275" y="0"/>
</glyph>
<glyph name="S" format="2">
  <advance width="290"/>
  <unicode hex="0053"/>
  <outline>
    <contour>
      <point x="240" y="494" type="line"/>
      <point x="240" y="625" type="line" smooth="yes"/>
      <point x="240" y="693"/>
      <point x="218" y="750"/>
      <point x="145" y="750" type="curve" smooth="yes"/>
      <point x="72" y="750"/>
      <point x="50" y="693"/>
      <point x="50" y="625" type="curve" smooth="yes"/>
      <point x="50" y="513" type="line" smooth="yes"/>
      <point x="50" y="490"/>
      <point x="59" y="468"/>
      <point x="69" y="456" type="curve"/>
      <point x="188" y="305" type="line" smooth="yes"/>
      <point x="194" y="297"/>
      <point x="200" y="287"/>
      <point x="200" y="271" type="curve" smooth="yes"/>
      <point x="200" y="105" type="line" smooth="yes"/>
      <point x="200" y="51"/>
      <point x="182" y="25"/>
      <point x="145" y="25" type="curve" smooth="yes"/>
      <point x="108" y="25"/>
      <point x="90" y="52"/>
      <point x="90" y="105" type="curve" smooth="yes"/>
      <point x="90" y="285" type="line"/>
      <point x="50" y="285" type="line"/>
      <point x="50" y="115" type="line" smooth="yes"/>
      <point x="50" y="36"/>
      <point x="80" y="-10"/>
      <point x="145" y="-10" type="curve" smooth="yes"/>
      <point x="213" y="-10"/>
      <point x="240" y="40"/>
      <point x="240" y="115" type="curve" smooth="yes"/>
      <point x="240" y="266" type="line" smooth="yes"/>
      <point x="240" y="290"/>
      <point x="233" y="308"/>
      <point x="220" y="324" type="curve" smooth="yes"/>
      <point x="102" y="475" type="line"/>
      <point x="95" y="483"/>
      <point x="90" y="495"/>
      <point x="90" y="508" type="curve" smooth="yes"/>
      <point x="90" y="635" type="line" smooth="yes"/>
      <point x="90" y="692"/>
      <point x="110" y="715"/>
      <point x="145" y="715" type="curve" smooth="yes"/>
      <point x="179" y="715"/>
      <point x="200" y="693"/>
      <point x="200" y="635" type="curve" smooth="yes"/>
      <point x="200" y="494" type="line"/>
    </contour>
  </outline>
  <guideline angle="0" x="0" y="625"/>
  <guideline angle="0" x="0" y="635"/>
  <guideline angle="0" x="0" y="105"/>
  <guideline angle="0" x="0" y="115"/>
</glyph>
<glyph name="T" format="2">
  <advance width="240"/>
  <unicode hex="0054"/>
  <outline>
    <contour>
      <point x="100" y="0" type="line"/>
      <point x="140" y="0" type="line"/>
      <point x="140" y="740" type="line"/>
      <point x="100" y="740" type="line"/>
    </contour>
    <contour>
      <point x="140" y="705" type="line"/>
      <point x="220" y="705" type="line"/>
      <point x="220" y="740" type="line"/>
      <point x="140" y="740" type="line"/>
    </contour>
    <contour>
      <point x="20" y="705" type="line"/>
      <point x="100" y="705" type="line"/>
      <point x="100" y="740" type="line"/>
      <point x="20" y="740" type="line"/>
    </contour>
  </outline>
</glyph>
<glyph name="U" format="2">
  <advance width="300"/>
  <unicode hex="0055"/>
  <outline>
    <contour>
      <point x="205" y="740" type="line"/>
      <point x="205" y="105" type="line" smooth="yes"/>
      <point x="205" y="55"/>
      <point x="190" y="25"/>
      <point x="150" y="25" type="curve" smooth="yes"/>
      <point x="112" y="25"/>
      <point x="95" y="53"/>
      <point x="95" y="105" type="curve" smooth="yes"/>
      <point x="95" y="740" type="line"/>
      <point x="55" y="740" type="line"/>
      <point x="55" y="115" type="line" smooth="yes"/>
      <point x="55" y="25"/>
      <point x="93" y="-10"/>
      <point x="150" y="-10" type="curve" smooth="yes"/>
      <point x="211" y="-10"/>
      <point x="245" y="31"/>
      <point x="245" y="115" type="curve" smooth="yes"/>
      <point x="245" y="740" type="line"/>
    </contour>
  </outline>
</glyph>
<glyph name="V" format="2">
  <advance width="280"/>
  <unicode hex="0056"/>
  <outline>
    <contour>
      <point x="120" y="0" type="line"/>
      <point x="160" y="0" type="line"/>
      <point x="255" y="740" type="line"/>
      <point x="215" y="740" type="line"/>
      <point x="163" y="320" type="line" smooth="yes"/>
      <point x="145" y="172"/>
      <point x="142" y="76"/>
      <point x="142" y="76" type="curve"/>
      <point x="140" y="76" type="line"/>
      <point x="140" y="76"/>
      <point x="137" y="172"/>
      <point x="119" y="320" type="curve" smooth="yes"/>
      <point x="67" y="740" type="line"/>
      <point x="25" y="740" type="line"/>
    </contour>
  </outline>
  <guideline angle="0" x="0" y="175"/>
  <guideline angle="90" x="140" y="0"/>
</glyph>
<glyph name="W" format="2">
  <advance width="380"/>
  <unicode hex="0057"/>
  <outline>
    <contour>
      <point x="270" y="0" type="line"/>
      <point x="310" y="0" type="line"/>
      <point x="335" y="740" type="line"/>
      <point x="295" y="740" type="line"/>
      <point x="278" y="245" type="line" smooth="yes"/>
      <point x="277" y="215"/>
      <point x="280" y="133"/>
      <point x="280" y="133" type="curve"/>
      <point x="278" y="132" type="line"/>
      <point x="278" y="132"/>
      <point x="270" y="195"/>
      <point x="267" y="212" type="curve" smooth="yes"/>
      <point x="210" y="590" type="line"/>
      <point x="170" y="590" type="line"/>
      <point x="112" y="212" type="line" smooth="yes"/>
      <point x="109" y="195"/>
      <point x="101" y="132"/>
      <point x="101" y="132" type="curve"/>
      <point x="99" y="133" type="line"/>
      <point x="99" y="133"/>
      <point x="102" y="215"/>
      <point x="101" y="245" type="curve" smooth="yes"/>
      <point x="85" y="740" type="line"/>
      <point x="45" y="740" type="line"/>
      <point x="70" y="0" type="line"/>
      <point x="110" y="0" type="line"/>
      <point x="185" y="446" type="line" smooth="yes"/>
      <point x="188" y="465"/>
      <point x="189" y="507"/>
      <point x="189" y="507" type="curve"/>
      <point x="191" y="507" type="line"/>
      <point x="191" y="507"/>
      <point x="192" y="465"/>
      <point x="195" y="446" type="curve" smooth="yes"/>
    </contour>
  </outline>
  <guideline angle="0" x="0" y="280"/>
  <guideline angle="0" x="0" y="460"/>
  <guideline angle="0" x="0" y="217"/>
  <guideline angle="0" x="0" y="167"/>
</glyph>
<glyph name="X" format="2">
  <advance width="300"/>
  <unicode hex="0058"/>
  <outline>
    <contour>
      <point x="260" y="740" type="line"/>
      <point x="220" y="740" type="line"/>
      <point x="164" y="511" type="line" smooth="yes"/>
      <point x="155" y="473"/>
      <point x="152" y="436"/>
      <point x="152" y="436" type="curve"/>
      <point x="150" y="436" type="line"/>
      <point x="150" y="436"/>
      <point x="147" y="473"/>
      <point x="138" y="511" type="curve" smooth="yes"/>
      <point x="82" y="740" type="line"/>
      <point x="40" y="740" type="line"/>
      <point x="127" y="389" type="line"/>
      <point x="30" y="0" type="line"/>
      <point x="72" y="0" type="line"/>
      <point x="131" y="245" type="line" smooth="yes"/>
      <point x="139" y="280"/>
      <point x="150" y="343"/>
      <point x="150" y="343" type="curve"/>
      <point x="152" y="343" type="line"/>
      <point x="152" y="343"/>
      <point x="163" y="280"/>
      <point x="171" y="245" type="curve" smooth="yes"/>
      <point x="230" y="0" type="line"/>
      <point x="270" y="0" type="line"/>
      <point x="172" y="389" type="line"/>
    </contour>
  </outline>
  <guideline angle="0" x="0" y="591"/>
  <guideline angle="0" x="0" y="213"/>
  <guideline angle="0" x="0" y="468"/>
  <guideline angle="0" x="0" y="320"/>
  <guideline angle="0" x="0" y="740"/>
  <guideline angle="90" x="30" y="0"/>
  <guideline angle="90" x="270" y="0"/>
</glyph>
<glyph name="Y" format="2">
  <advance width="270"/>
  <unicode hex="0059"/>
  <outline>
    <contour>
      <point x="115" y="0" type="line"/>
      <point x="155" y="0" type="line"/>
      <point x="155" y="205" type="line"/>
      <point x="240" y="740" type="line"/>
      <point x="199" y="740" type="line"/>
      <point x="146" y="382" type="line" smooth="yes"/>
      <point x="138" y="325"/>
      <point x="136" y="273"/>
      <point x="136" y="273" type="curve"/>
      <point x="134" y="273" type="line"/>
      <point x="134" y="273"/>
      <point x="132" y="325"/>
      <point x="124" y="382" type="curve" smooth="yes"/>
      <point x="71" y="740" type="line"/>
      <point x="30" y="740" type="line"/>
      <point x="115" y="205" type="line"/>
    </contour>
  </outline>
  <guideline angle="0" x="0" y="517"/>
  <guideline angle="0" x="0" y="490"/>
  <guideline angle="0" x="0" y="325"/>
  <guideline angle="90" x="135" y="0"/>
</glyph>
<glyph name="Z" format="2">
  <advance width="230"/>
  <unicode hex="005A"/>
  <outline>
    <contour>
      <point x="35" y="705" type="line"/>
      <point x="153" y="705" type="line"/>
      <point x="195" y="715" type="line"/>
      <point x="195" y="740" type="line"/>
      <point x="35" y="740" type="line"/>
    </contour>
    <contour>
      <point x="30" y="0" type="line"/>
      <point x="200" y="0" type="line"/>
      <point x="200" y="35" type="line"/>
      <point x="72" y="35" type="line"/>
      <point x="30" y="25" type="line"/>
    </contour>
    <contour>
      <point x="30" y="25" type="line"/>
      <point x="72" y="35" type="line"/>
      <point x="195" y="715" type="line"/>
      <point x="153" y="705" type="line"/>
    </contour>
  </outline>
  <guideline angle="90" x="190" y="0"/>
  <guideline angle="90" x="40" y="0"/>
</glyph>
<glyph name="bracketleft" format="2">
  <advance width="194"/>
  <unicode hex="005B"/>
  <outline>
    <contour>
      <point x="174" y="760" type="line"/>
      <point x="55" y="760" type="line"/>
      <point x="55" y="-20" type="line"/>
      <point x="174" y="-20" type="line"/>
      <point x="174" y="15" type="line"/>
      <point x="95" y="15" type="line"/>
      <point x="95" y="725" type="line"/>
      <point x="174" y="725" type="line"/>
    </contour>
  </outline>
</glyph>
<glyph name="braceleft" format="2">
  <advance width="182"/>
  <unicode hex="007B"/>
  <outline>
    <contour>
      <point x="162" y="760" type="line"/>
      <point x="133" y="760" type="line" smooth="yes"/>
      <point x="97" y="760"/>
      <point x="73" y="738"/>
      <point x="73" y="705" type="curve" smooth="yes"/>
      <point x="73" y="437" type="line" smooth="yes"/>
      <point x="73" y="407"/>
      <point x="53" y="387"/>
      <point x="23" y="387" type="curve" smooth="yes"/>
      <point x="5" y="387" type="line"/>
      <point x="5" y="353" type="line"/>
      <point x="23" y="353" type="line" smooth="yes"/>
      <point x="53" y="353"/>
      <point x="73" y="333"/>
      <point x="73" y="303" type="curve" smooth="yes"/>
      <point x="73" y="35" type="line" smooth="yes"/>
      <point x="73" y="2"/>
      <point x="97" y="-20"/>
      <point x="133" y="-20" type="curve" smooth="yes"/>
      <point x="162" y="-20" type="line"/>
      <point x="162" y="15" type="line"/>
      <point x="133" y="15" type="line" smooth="yes"/>
      <point x="121" y="15"/>
      <point x="113" y="23"/>
      <point x="113" y="35" type="curve" smooth="yes"/>
      <point x="113" y="303" type="line" smooth="yes"/>
      <point x="113" y="333"/>
      <point x="97" y="356"/>
      <point x="71" y="365" type="curve"/>
      <point x="71" y="375" type="line"/>
      <point x="98" y="385"/>
      <point x="113" y="407"/>
      <point x="113" y="437" type="curve" smooth="yes"/>
      <point x="113" y="705" type="line" smooth="yes"/>
      <point x="113" y="717"/>
      <point x="121" y="725"/>
      <point x="133" y="725" type="curve" smooth="yes"/>
      <point x="162" y="725" type="line"/>
    </contour>
  </outline>
  <guideline angle="0" x="0" y="370"/>
</glyph>
<glyph name="bar" format="2">
  <advance width="150"/>
  <unicode hex="007C"/>
  <outline>
    <contour>
      <point x="55" y="-50" type="line"/>
      <point x="95" y="-50" type="line"/>
      <point x="95" y="790" type="line"/>
      <point x="55" y="790" type="line"/>
    </contour>
  </outline>
</glyph>
<glyph name="exclamdown" format="2">
  <advance width="150"/>
  <unicode hex="00A1"/>
  <outline>
    <contour>
      <point x="95" y="740" type="line"/>
      <point x="55" y="740" type="line"/>
      <point x="55" y="665" type="line"/>
      <point x="95" y="665" type="line"/>
    </contour>
    <contour>
      <point x="95" y="175" type="line"/>
      <point x="90" y="565" type="line"/>
      <point x="60" y="565" type="line"/>
      <point x="55" y="175" type="line"/>
      <point x="55" y="0" type="line"/>
      <point x="95" y="0" type="line"/>
    </contour>
  </outline>
</glyph>
<glyph name="cent" format="2">
  <advance width="300"/>
  <unicode hex="00A2"/>
  <outline>
    <component base="C.alt" yOffset="70"/>
    <contour>
      <point x="130" y="0" type="line"/>
      <point x="170" y="0" type="line"/>
      <point x="170" y="70" type="line"/>
      <point x="130" y="70" type="line"/>
    </contour>
    <contour>
      <point x="130" y="660" type="line"/>
      <point x="170" y="660" type="line"/>
      <point x="170" y="740" type="line"/>
      <point x="130" y="740" type="line"/>
    </contour>
  </outline>
</glyph>
<glyph name="brokenbar" format="2">
  <advance width="150"/>
  <unicode hex="00A6"/>
  <outline>
    <contour>
      <point x="95" y="295" type="line"/>
      <point x="55" y="295" type="line"/>
      <point x="55" y="-50" type="line"/>
      <point x="95" y="-50" type="line"/>
    </contour>
    <contour>
      <point x="55" y="445" type="line"/>
      <point x="95" y="445" type="line"/>
      <point x="95" y="790" type="line"/>
      <point x="55" y="790" type="line"/>
    </contour>
  </outline>
  <guideline angle="0" x="0" y="-50"/>
</glyph>
<glyph name="dieresis" format="2">
  <advance width="300"/>
  <unicode hex="00A8"/>
  <outline>
    <contour>
      <point x="65" y="685" type="line"/>
      <point x="105" y="685" type="line"/>
      <point x="105" y="740" type="line"/>
      <point x="65" y="740" type="line"/>
    </contour>
    <contour>
      <point x="235" y="740" type="line"/>
      <point x="195" y="740" type="line"/>
      <point x="195" y="685" type="line"/>
      <point x="235" y="685" type="line"/>
    </contour>
  </outline>
</glyph>
<glyph name="degree" format="2">
  <advance width="300"/>
  <unicode hex="00B0"/>
  <outline>
    <contour>
      <point x="45" y="645" type="curve" smooth="yes"/>
      <point x="45" y="582"/>
      <point x="87" y="540"/>
      <point x="150" y="540" type="curve" smooth="yes"/>
      <point x="213" y="540"/>
      <point x="255" y="582"/>
      <point x="255" y="645" type="curve" smooth="yes"/>
      <point x="255" y="708"/>
      <point x="213" y="750"/>
      <point x="150" y="750" type="curve" smooth="yes"/>
      <point x="87" y="750"/>
      <point x="45" y="708"/>
    </contour>
    <contour>
      <point x="80" y="646" type="curve" smooth="yes"/>
      <point x="80" y="690"/>
      <point x="108" y="720"/>
      <point x="150" y="720" type="curve" smooth="yes"/>
      <point x="192" y="720"/>
      <point x="220" y="690"/>
      <point x="220" y="646" type="curve" smooth="yes"/>
      <point x="220" y="600"/>
      <point x="192" y="570"/>
      <point x="150" y="570" type="curve" smooth="yes"/>
      <point x="108" y="570"/>
      <point x="80" y="600"/>
    </contour>
  </outline>
  <guideline angle="0" x="0" y="125"/>
  <guideline angle="90" x="55" y="0"/>
  <guideline angle="90" x="95" y="0"/>
  <guideline angle="90" x="205" y="0"/>
  <guideline angle="90" x="245" y="0"/>
  <guideline angle="0" x="0" y="645"/>
</glyph>
<glyph name="acute" format="2">
  <advance width="300"/>
  <unicode hex="00B4"/>
  <outline>
    <contour>
      <point x="80" y="705" type="line"/>
      <point x="80" y="720" type="line"/>
      <point x="220" y="740" type="line"/>
      <point x="220" y="705" type="line"/>
    </contour>
  </outline>
  <guideline angle="90" x="35" y="0"/>
  <guideline angle="90" x="235" y="0"/>
</glyph>
<glyph name="cedilla" format="2">
  <advance width="300"/>
  <unicode hex="00B8"/>
  <outline>
    <contour>
      <point x="135" y="80" type="line"/>
      <point x="165" y="80" type="line"/>
      <point x="165" y="150" type="line"/>
      <point x="135" y="150" type="line"/>
    </contour>
    <contour>
      <point x="150" y="105" type="curve"/>
      <point x="150" y="80" type="line"/>
      <point x="172" y="80"/>
      <point x="186" y="66"/>
      <point x="186" y="47" type="curve" smooth="yes"/>
      <point x="186" y="28"/>
      <point x="172" y="15"/>
      <point x="151.573" y="15" type="curve" smooth="yes"/>
      <point x="125" y="15"/>
      <point x="108" y="37"/>
      <point x="108" y="37" type="curve"/>
      <point x="91" y="18" type="line"/>
      <point x="91" y="18"/>
      <point x="110" y="-10"/>
      <point x="152.939" y="-10" type="curve" smooth="yes"/>
      <point x="191" y="-10"/>
      <point x="216" y="12"/>
      <point x="216" y="45.6666" type="curve" smooth="yes"/>
      <point x="216" y="80"/>
      <point x="190" y="105"/>
    </contour>
  </outline>
  <guideline angle="0" x="0" y="100"/>
  <guideline angle="90" x="24" y="0"/>
  <guideline angle="90" x="124" y="0"/>
  <guideline angle="90" x="174" y="0"/>
  <guideline angle="90" x="274" y="0"/>
</glyph>
<glyph name="questiondown" format="2">
  <advance width="290"/>
  <unicode hex="00BF"/>
  <outline>
    <contour>
      <point x="128" y="434" type="line" smooth="yes"/>
      <point x="128" y="419"/>
      <point x="122" y="402"/>
      <point x="113" y="390" type="curve" smooth="yes"/>
      <point x="69" y="334" type="line"/>
      <point x="59" y="322"/>
      <point x="50" y="300"/>
      <point x="50" y="277" type="curve" smooth="yes"/>
      <point x="50" y="115" type="line" smooth="yes"/>
      <point x="50" y="47"/>
      <point x="72" y="-10"/>
      <point x="145" y="-10" type="curve" smooth="yes"/>
      <point x="218" y="-10"/>
      <point x="240" y="47"/>
      <point x="240" y="115" type="curve" smooth="yes"/>
      <point x="240" y="246" type="line"/>
      <point x="200" y="246" type="line"/>
      <point x="200" y="105" type="line" smooth="yes"/>
      <point x="200" y="47"/>
      <point x="179" y="25"/>
      <point x="145" y="25" type="curve" smooth="yes"/>
      <point x="110" y="25"/>
      <point x="90" y="48"/>
      <point x="90" y="105" type="curve" smooth="yes"/>
      <point x="90" y="282" type="line" smooth="yes"/>
      <point x="90" y="295"/>
      <point x="95" y="307"/>
      <point x="102" y="315" type="curve"/>
      <point x="137" y="360" type="line" smooth="yes"/>
      <point x="152" y="379"/>
      <point x="162" y="408"/>
      <point x="162" y="432" type="curve" smooth="yes"/>
      <point x="160" y="565" type="line"/>
      <point x="130" y="565" type="line"/>
    </contour>
    <contour>
      <point x="165" y="740" type="line"/>
      <point x="125" y="740" type="line"/>
      <point x="125" y="665" type="line"/>
      <point x="165" y="665" type="line"/>
    </contour>
  </outline>
  <guideline angle="0" x="0" y="625"/>
  <guideline angle="0" x="0" y="635"/>
  <guideline angle="0" x="0" y="105"/>
  <guideline angle="0" x="0" y="115"/>
  <guideline angle="90" x="145" y="0"/>
</glyph>
<glyph name="Icircumflex" format="2">
  <advance width="150"/>
  <unicode hex="00CE"/>
  <outline>
    <component base="I.alt"/>
    <contour>
      <point x="30" y="700" type="line"/>
      <point x="75" y="710" type="line"/>
      <point x="120" y="700" type="line"/>
      <point x="120" y="720" type="line"/>
      <point x="75" y="740" type="line"/>
      <point x="30" y="720" type="line"/>
    </contour>
  </outline>
  <guideline angle="90" x="-25" y="0"/>
  <guideline angle="90" x="175" y="0"/>
  <guideline angle="90" x="75" y="0"/>
  <guideline angle="90" x="3" y="0"/>
  <guideline angle="90" x="175" y="0"/>
  <guideline angle="90" x="75" y="0"/>
</glyph>
<glyph name="Idieresis" format="2">
  <advance width="150"/>
  <unicode hex="00CF"/>
  <outline>
    <component base="I.alt"/>
    <contour>
      <point x="15" y="685" type="line"/>
      <point x="55" y="685" type="line"/>
      <point x="55" y="740" type="line"/>
      <point x="15" y="740" type="line"/>
    </contour>
    <contour>
      <point x="135" y="740" type="line"/>
      <point x="95" y="740" type="line"/>
      <point x="95" y="685" type="line"/>
      <point x="135" y="685" type="line"/>
    </contour>
  </outline>
</glyph>
<glyph name="Oslash" format="2">
  <advance width="300"/>
  <unicode hex="00D8"/>
  <outline>
    <component base="O"/>
    <contour>
      <point x="260" y="746" type="line"/>
      <point x="70" y="-4" type="line"/>
      <point x="40" y="4" type="line"/>
      <point x="230" y="754" type="line"/>
    </contour>
  </outline>
  <guideline angle="0" x="0" y="125"/>
  <guideline angle="90" x="55" y="0"/>
  <guideline angle="90" x="125" y="0"/>
  <guideline angle="90" x="175" y="0"/>
  <guideline angle="90" x="245" y="0"/>
</glyph>
<glyph name="Thorn" format="2">
  <advance width="300"/>
  <unicode hex="00DE"/>
  <outline>
    <contour>
      <point x="245" y="255" type="curve"/>
      <point x="245" y="485" type="line" smooth="yes"/>
      <point x="245" y="575"/>
      <point x="207" y="610"/>
      <point x="150" y="610" type="curve" smooth="yes"/>
      <point x="55" y="610" type="line"/>
      <point x="55" y="130" type="line"/>
      <point x="150" y="130" type="line" smooth="yes"/>
      <point x="207" y="130"/>
      <point x="245" y="165"/>
    </contour>
    <contour>
      <point x="95" y="575" type="line"/>
      <point x="150" y="575" type="line" smooth="yes"/>
      <point x="188" y="575"/>
      <point x="205" y="548"/>
      <point x="205" y="495" type="curve" smooth="yes"/>
      <point x="205" y="245" type="line" smooth="yes"/>
      <point x="205" y="192"/>
      <point x="188" y="165"/>
      <point x="150" y="165" type="curve" smooth="yes"/>
      <point x="95" y="165" type="line"/>
    </contour>
    <contour>
      <point x="55" y="0" type="line"/>
      <point x="95" y="0" type="line"/>
      <point x="95" y="130" type="line"/>
      <point x="55" y="130" type="line"/>
    </contour>
    <contour>
      <point x="55" y="610" type="line"/>
      <point x="95" y="610" type="line"/>
      <point x="95" y="740" type="line"/>
      <point x="55" y="740" type="line"/>
    </contour>
  </outline>
  <guideline angle="90" x="55" y="0"/>
  <guideline angle="90" x="95" y="0"/>
</glyph>
<glyph name="Hbar" format="2">
  <advance width="300"/>
  <unicode hex="0126"/>
  <outline>
    <component base="H.alt"/>
    <contour>
      <point x="30" y="485" type="line"/>
      <point x="30" y="510" type="line"/>
      <point x="270" y="510" type="line"/>
      <point x="270" y="485" type="line"/>
    </contour>
  </outline>
  <guideline angle="90" x="35" y="0"/>
  <guideline angle="90" x="235" y="0"/>
  <guideline angle="90" x="35" y="0"/>
  <guideline angle="90" x="235" y="0"/>
</glyph>
<glyph name="OE" format="2">
  <advance width="390"/>
  <unicode hex="0152"/>
  <outline>
    <contour>
      <point x="140" y="-10" type="curve" smooth="yes"/>
      <point x="195" y="-10"/>
      <point x="225" y="31"/>
      <point x="225" y="115" type="curve" smooth="yes"/>
      <point x="225" y="625" type="line" smooth="yes"/>
      <point x="225" y="717"/>
      <point x="189" y="750"/>
      <point x="140" y="750" type="curve" smooth="yes"/>
      <point x="87" y="750"/>
      <point x="55" y="712"/>
      <point x="55" y="625" type="curve" smooth="yes"/>
      <point x="55" y="115" type="line" smooth="yes"/>
      <point x="55" y="25"/>
      <point x="89" y="-10"/>
    </contour>
    <contour>
      <point x="95" y="635" type="line" smooth="yes"/>
      <point x="95" y="686"/>
      <point x="111" y="715"/>
      <point x="150" y="715" type="curve" smooth="yes"/>
      <point x="189" y="715"/>
      <point x="205" y="686"/>
      <point x="205" y="635" type="curve" smooth="yes"/>
      <point x="205" y="105" type="line" smooth="yes"/>
      <point x="205" y="55"/>
      <point x="190" y="25"/>
      <point x="150" y="25" type="curve" smooth="yes"/>
      <point x="112" y="25"/>
      <point x="95" y="53"/>
      <point x="95" y="105" type="curve" smooth="yes"/>
    </contour>
    <contour>
      <point x="205" y="0" type="line"/>
      <point x="245" y="0" type="line"/>
      <point x="245" y="740" type="line"/>
      <point x="205" y="740" type="line"/>
    </contour>
    <contour>
      <point x="245" y="705" type="line"/>
      <point x="345" y="705" type="line"/>
      <point x="345" y="740" type="line"/>
      <point x="245" y="740" type="line"/>
    </contour>
    <contour>
      <point x="245" y="0" type="line"/>
      <point x="345" y="0" type="line"/>
      <point x="345" y="35" type="line"/>
      <point x="245" y="35" type="line"/>
    </contour>
    <contour>
      <point x="215" y="370" type="line"/>
      <point x="320" y="370" type="line"/>
      <point x="320" y="405" type="line"/>
      <point x="215" y="405" type="line"/>
    </contour>
  </outline>
  <guideline angle="0" x="0" y="125"/>
  <guideline angle="90" x="25" y="0"/>
  <guideline angle="90" x="125" y="0"/>
  <guideline angle="90" x="175" y="0"/>
  <guideline angle="90" x="275" y="0"/>
  <guideline angle="0" x="0" y="387"/>
  <guideline angle="0" x="0" y="125"/>
  <guideline angle="90" x="25" y="0"/>
  <guideline angle="90" x="125" y="0"/>
  <guideline angle="90" x="175" y="0"/>
  <guideline angle="90" x="275" y="0"/>
  <guideline angle="0" x="0" y="387"/>
</glyph>
<glyph name="circumflex" format="2">
  <advance width="300"/>
  <unicode hex="02C6"/>
  <outline>
    <contour>
      <point x="74" y="705" type="line"/>
      <point x="82" y="685" type="line"/>
      <point x="150" y="707" type="line"/>
      <point x="218" y="685" type="line"/>
      <point x="226" y="705" type="line"/>
      <point x="165" y="735" type="line"/>
      <point x="135" y="735" type="line"/>
    </contour>
  </outline>
  <guideline angle="90" x="50" y="0"/>
  <guideline angle="90" x="250" y="0"/>
  <guideline angle="90" x="150" y="0"/>
</glyph>
<glyph name="caron" format="2">
  <advance width="300"/>
  <unicode hex="02C7"/>
  <outline>
    <contour>
      <point x="74" y="720" type="line"/>
      <point x="135" y="690" type="line"/>
      <point x="165" y="690" type="line"/>
      <point x="226" y="720" type="line"/>
      <point x="218" y="740" type="line"/>
      <point x="150" y="718" type="line"/>
      <point x="82" y="740" type="line"/>
    </contour>
  </outline>
  <guideline angle="90" x="140" y="0"/>
</glyph>
<glyph name="breve" format="2">
  <advance width="300"/>
  <unicode hex="02D8"/>
  <outline>
    <contour>
      <point x="74" y="745" type="line"/>
      <point x="74" y="712"/>
      <point x="104" y="690"/>
      <point x="150" y="690" type="curve" smooth="yes"/>
      <point x="196" y="690"/>
      <point x="226" y="712"/>
      <point x="226" y="745" type="curve"/>
      <point x="201" y="745" type="line"/>
      <point x="201" y="727"/>
      <point x="181" y="715"/>
      <point x="150" y="715" type="curve" smooth="yes"/>
      <point x="119" y="715"/>
      <point x="99" y="727"/>
      <point x="99" y="745" type="curve"/>
    </contour>
  </outline>
  <guideline angle="90" x="140" y="0"/>
</glyph>
<glyph name="dotaccent" format="2">
  <advance width="300"/>
  <unicode hex="02D9"/>
  <outline>
    <contour>
      <point x="120" y="720" type="curve" smooth="yes"/>
      <point x="120" y="702"/>
      <point x="132" y="690"/>
      <point x="150" y="690" type="curve" smooth="yes"/>
      <point x="168" y="690"/>
      <point x="180" y="702"/>
      <point x="180" y="720" type="curve" smooth="yes"/>
      <point x="180" y="738"/>
      <point x="168" y="750"/>
      <point x="150" y="750" type="curve" smooth="yes"/>
      <point x="132" y="750"/>
      <point x="120" y="738"/>
    </contour>
  </outline>
  <guideline angle="90" x="25" y="0"/>
  <guideline angle="90" x="225" y="0"/>
  <guideline angle="90" x="125" y="0"/>
</glyph>
<glyph name="ring" format="2">
  <advance width="300"/>
  <unicode hex="02DA"/>
  <outline>
    <contour>
      <point x="95" y="705" type="curve" smooth="yes"/>
      <point x="95" y="672"/>
      <point x="117" y="650"/>
      <point x="150" y="650" type="curve" smooth="yes"/>
      <point x="183" y="650"/>
      <point x="205" y="672"/>
      <point x="205" y="705" type="curve" smooth="yes"/>
      <point x="205" y="738"/>
      <point x="183" y="760"/>
      <point x="150" y="760" type="curve" smooth="yes"/>
      <point x="117" y="760"/>
      <point x="95" y="738"/>
    </contour>
    <contour>
      <point x="115" y="705" type="curve" smooth="yes"/>
      <point x="115" y="726"/>
      <point x="129" y="740"/>
      <point x="150" y="740" type="curve" smooth="yes"/>
      <point x="171" y="740"/>
      <point x="185" y="726"/>
      <point x="185" y="705" type="curve" smooth="yes"/>
      <point x="185" y="684"/>
      <point x="171" y="670"/>
      <point x="150" y="670" type="curve" smooth="yes"/>
      <point x="129" y="670"/>
      <point x="115" y="684"/>
    </contour>
  </outline>
  <guideline angle="90" x="20" y="0"/>
  <guideline angle="90" x="220" y="0"/>
  <guideline angle="90" x="120" y="0"/>
</glyph>
<glyph name="ogonek" format="2">
  <advance width="300"/>
  <unicode hex="02DB"/>
  <outline>
    <contour>
      <point x="114" y="62.1076" type="curve" smooth="yes"/>
      <point x="114" y="19"/>
      <point x="143" y="-10"/>
      <point x="186" y="-10" type="curve"/>
      <point x="186" y="15" type="line"/>
      <point x="161" y="15"/>
      <point x="144" y="37"/>
      <point x="144" y="70.0759" type="curve" smooth="yes"/>
      <point x="144" y="99"/>
      <point x="157" y="131"/>
      <point x="176" y="150" type="curve"/>
      <point x="161" y="166" type="line"/>
      <point x="133" y="138"/>
      <point x="114" y="97"/>
    </contour>
  </outline>
</glyph>
<glyph name="tilde" format="2">
  <advance width="300"/>
  <unicode hex="02DC"/>
  <outline>
    <contour>
      <point x="70" y="695" type="line"/>
      <point x="70" y="695"/>
      <point x="90" y="710"/>
      <point x="110" y="710" type="curve"/>
      <point x="130" y="710"/>
      <point x="160" y="695"/>
      <point x="190" y="695" type="curve"/>
      <point x="210" y="695"/>
      <point x="230" y="710"/>
      <point x="230" y="710" type="curve"/>
      <point x="230" y="740" type="line"/>
      <point x="230" y="740"/>
      <point x="210" y="725"/>
      <point x="190" y="725" type="curve"/>
      <point x="160" y="725"/>
      <point x="130" y="740"/>
      <point x="110" y="740" type="curve"/>
      <point x="90" y="740"/>
      <point x="70" y="725"/>
      <point x="70" y="725" type="curve"/>
    </contour>
  </outline>
  <guideline angle="90" x="35" y="0"/>
  <guideline angle="90" x="235" y="0"/>
  <guideline angle="90" x="150" y="0"/>
</glyph>
<glyph name="hungarumlaut" format="2">
  <advance width="300"/>
  <unicode hex="02DD"/>
  <outline>
    <contour>
      <point x="60" y="705" type="line"/>
      <point x="60" y="720" type="line"/>
      <point x="140" y="740" type="line"/>
      <point x="140" y="705" type="line"/>
    </contour>
    <contour>
      <point x="160" y="705" type="line"/>
      <point x="160" y="720" type="line"/>
      <point x="240" y="740" type="line"/>
      <point x="240" y="705" type="line"/>
    </contour>
  </outline>
  <guideline angle="90" x="35" y="0"/>
  <guideline angle="90" x="235" y="0"/>
</glyph>
<glyph name="commaaccent" format="2">
  <advance width="300"/>
  <unicode hex="0326"/>
  <outline>
    <contour>
      <point x="130" y="0" type="line"/>
      <point x="165" y="0" type="line"/>
      <point x="170" y="85" type="line"/>
      <point x="130" y="85" type="line"/>
    </contour>
  </outline>
</glyph>
<glyph name="Delta" format="2">
  <advance width="280"/>
  <unicode hex="0394"/>
  <outline>
    <contour>
      <point x="40" y="0" type="line"/>
      <point x="222" y="0" type="line"/>
      <point x="222" y="35" type="line"/>
      <point x="40" y="35" type="line"/>
    </contour>
    <contour>
      <point x="160" y="740" type="line"/>
      <point x="120" y="740" type="line"/>
      <point x="25" y="0" type="line"/>
      <point x="65" y="0" type="line"/>
      <point x="117" y="420" type="line" smooth="yes"/>
      <point x="135" y="568"/>
      <point x="138" y="664"/>
      <point x="138" y="664" type="curve"/>
      <point x="140" y="664" type="line"/>
      <point x="140" y="664"/>
      <point x="143" y="568"/>
      <point x="161" y="420" type="curve" smooth="yes"/>
      <point x="213" y="0" type="line"/>
      <point x="255" y="0" type="line"/>
    </contour>
  </outline>
</glyph>
<glyph name="quoteleft" format="2">
  <advance width="150"/>
  <unicode hex="2018"/>
  <outline>
    <contour>
      <point x="95" y="680" type="line"/>
      <point x="80" y="680" type="line"/>
      <point x="95" y="740" type="line"/>
      <point x="75" y="740" type="line"/>
      <point x="55" y="675" type="line"/>
      <point x="55" y="605" type="line"/>
      <point x="95" y="605" type="line"/>
    </contour>
  </outline>
</glyph>
<glyph name="quoteright" format="2">
  <advance width="150"/>
  <unicode hex="2019"/>
  <outline>
    <contour>
      <point x="55" y="665" type="line"/>
      <point x="70" y="665" type="line"/>
      <point x="55" y="605" type="line"/>
      <point x="75" y="605" type="line"/>
      <point x="95" y="670" type="line"/>
      <point x="95" y="740" type="line"/>
      <point x="55" y="740" type="line"/>
    </contour>
  </outline>
</glyph>
<glyph name="quotesinglbase" format="2">
  <advance width="150"/>
  <unicode hex="201A"/>
  <outline>
    <contour>
      <point x="55" y="60" type="line"/>
      <point x="70" y="60" type="line"/>
      <point x="55" y="0" type="line"/>
      <point x="75" y="0" type="line"/>
      <point x="95" y="65" type="line"/>
      <point x="95" y="135" type="line"/>
      <point x="55" y="135" type="line"/>
    </contour>
  </outline>
</glyph>
<glyph name="dagger" format="2">
  <advance width="340"/>
  <unicode hex="2020"/>
  <outline>
    <contour>
      <point x="150" y="0" type="line"/>
      <point x="190" y="0" type="line"/>
      <point x="190" y="740" type="line"/>
      <point x="150" y="740" type="line"/>
    </contour>
    <contour>
      <point x="190" y="570" type="line"/>
      <point x="305" y="570" type="line"/>
      <point x="305" y="605" type="line"/>
      <point x="190" y="605" type="line"/>
    </contour>
    <contour>
      <point x="35" y="570" type="line"/>
      <point x="150" y="570" type="line"/>
      <point x="150" y="605" type="line"/>
      <point x="35" y="605" type="line"/>
    </contour>
  </outline>
</glyph>
<glyph name="lira" format="2">
  <advance width="300"/>
  <unicode hex="20A4"/>
  <outline>
    <contour>
      <point x="95" y="0" type="line"/>
      <point x="95" y="635" type="line" smooth="yes"/>
      <point x="95" y="686"/>
      <point x="111" y="715"/>
      <point x="150" y="715" type="curve" smooth="yes"/>
      <point x="189" y="715"/>
      <point x="205" y="686"/>
      <point x="205" y="635" type="curve" smooth="yes"/>
      <point x="205" y="444" type="line"/>
      <point x="245" y="444" type="line"/>
      <point x="245" y="625" type="line" smooth="yes"/>
      <point x="245" y="717"/>
      <point x="205" y="750"/>
      <point x="150" y="750" type="curve" smooth="yes"/>
      <point x="91" y="750"/>
      <point x="55" y="712"/>
      <point x="55" y="625" type="curve" smooth="yes"/>
      <point x="55" y="0" type="line"/>
    </contour>
    <contour>
      <point x="75" y="0" type="line"/>
      <point x="245" y="0" type="line"/>
      <point x="245" y="35" type="line"/>
      <point x="75" y="35" type="line"/>
    </contour>
    <contour>
      <point x="75" y="320" type="line"/>
      <point x="225" y="320" type="line"/>
      <point x="225" y="355" type="line"/>
      <point x="75" y="355" type="line"/>
    </contour>
    <contour>
      <point x="75" y="170" type="line"/>
      <point x="225" y="170" type="line"/>
      <point x="225" y="205" type="line"/>
      <point x="75" y="205" type="line"/>
    </contour>
  </outline>
  <guideline angle="0" x="0" y="125"/>
  <guideline angle="90" x="25" y="0"/>
  <guideline angle="90" x="125" y="0"/>
  <guideline angle="90" x="175" y="0"/>
  <guideline angle="90" x="245" y="0"/>
</glyph>
<glyph name="product" format="2">
  <advance width="300"/>
  <unicode hex="220F"/>
  <outline>
    <contour>
      <point x="55" y="0" type="line"/>
      <point x="95" y="0" type="line"/>
      <point x="95" y="705" type="line"/>
      <point x="205" y="705" type="line"/>
      <point x="205" y="0" type="line"/>
      <point x="245" y="0" type="line"/>
      <point x="245" y="740" type="line"/>
      <point x="55" y="740" type="line"/>
    </contour>
  </outline>
</glyph>
<glyph name="summation" format="2">
  <advance width="220"/>
  <unicode hex="2211"/>
  <outline>
    <contour>
      <point x="200" y="0" type="line"/>
      <point x="200" y="35" type="line"/>
      <point x="73" y="35" type="line"/>
      <point x="152" y="367" type="line"/>
      <point x="152" y="400" type="line"/>
      <point x="78" y="705" type="line"/>
      <point x="195" y="705" type="line"/>
      <point x="195" y="740" type="line"/>
      <point x="35" y="740" type="line"/>
      <point x="35" y="715" type="line"/>
      <point x="115" y="384" type="line"/>
      <point x="30" y="25" type="line"/>
      <point x="30" y="0" type="line"/>
    </contour>
  </outline>
  <guideline angle="90" x="190" y="0"/>
  <guideline angle="90" x="40" y="0"/>
  <guideline angle="0" x="0" y="384"/>
</glyph>
<glyph name="A.alt" format="2">
  <advance width="280"/>
  <outline>
    <contour>
      <point x="160" y="590" type="line"/>
      <point x="120" y="590" type="line"/>
      <point x="25" y="0" type="line"/>
      <point x="65" y="0" type="line"/>
      <point x="117" y="346" type="line" smooth="yes"/>
      <point x="121" y="375"/>
      <point x="138" y="504"/>
      <point x="138" y="504" type="curve"/>
      <point x="140" y="504" type="line"/>
      <point x="140" y="504"/>
      <point x="157" y="375"/>
      <point x="161" y="346" type="curve" smooth="yes"/>
      <point x="213" y="0" type="line"/>
      <point x="255" y="0" type="line"/>
    </contour>
    <contour>
      <point x="198" y="219" type="line"/>
      <point x="78" y="219" type="line"/>
      <point x="78" y="184" type="line"/>
      <point x="198" y="184" type="line"/>
    </contour>
  </outline>
  <guideline angle="90" x="25" y="0"/>
  <guideline angle="90" x="225" y="0"/>
</glyph>
<glyph name="B.alt" format="2">
  <advance width="300"/>
  <outline>
    <contour>
      <point x="245" y="125" type="curve"/>
      <point x="245" y="190" type="line" smooth="yes"/>
      <point x="245" y="280"/>
      <point x="207" y="315"/>
      <point x="150" y="315" type="curve" smooth="yes"/>
      <point x="55" y="315" type="line"/>
      <point x="55" y="0" type="line"/>
      <point x="150" y="0" type="line" smooth="yes"/>
      <point x="207" y="0"/>
      <point x="245" y="35"/>
    </contour>
    <contour>
      <point x="95" y="280" type="line"/>
      <point x="150" y="280" type="line" smooth="yes"/>
      <point x="188" y="280"/>
      <point x="205" y="253"/>
      <point x="205" y="200" type="curve" smooth="yes"/>
      <point x="205" y="115" type="line" smooth="yes"/>
      <point x="205" y="62"/>
      <point x="188" y="35"/>
      <point x="150" y="35" type="curve" smooth="yes"/>
      <point x="95" y="35" type="line"/>
    </contour>
    <contour>
      <point x="240" y="465" type="line" smooth="yes"/>
      <point x="240" y="555"/>
      <point x="202" y="590"/>
      <point x="145" y="590" type="curve" smooth="yes"/>
      <point x="55" y="590" type="line"/>
      <point x="55" y="280" type="line"/>
      <point x="145" y="280" type="line" smooth="yes"/>
      <point x="202" y="280"/>
      <point x="240" y="315"/>
      <point x="240" y="405" type="curve" smooth="yes"/>
    </contour>
    <contour>
      <point x="95" y="555" type="line"/>
      <point x="145" y="555" type="line" smooth="yes"/>
      <point x="183" y="555"/>
      <point x="200" y="528"/>
      <point x="200" y="475" type="curve" smooth="yes"/>
      <point x="200" y="395" type="line" smooth="yes"/>
      <point x="200" y="342"/>
      <point x="183" y="315"/>
      <point x="145" y="315" type="curve" smooth="yes"/>
      <point x="95" y="315" type="line"/>
    </contour>
  </outline>
</glyph>
<glyph name="E.alt" format="2">
  <advance width="240"/>
  <outline>
    <contour>
      <point x="55" y="0" type="line"/>
      <point x="95" y="0" type="line"/>
      <point x="95" y="590" type="line"/>
      <point x="55" y="590" type="line"/>
    </contour>
    <contour>
      <point x="95" y="555" type="line"/>
      <point x="195" y="555" type="line"/>
      <point x="195" y="590" type="line"/>
      <point x="95" y="590" type="line"/>
    </contour>
    <contour>
      <point x="95" y="0" type="line"/>
      <point x="195" y="0" type="line"/>
      <point x="195" y="34" type="line"/>
      <point x="95" y="34" type="line"/>
    </contour>
    <contour>
      <point x="65" y="290" type="line"/>
      <point x="170" y="290" type="line"/>
      <point x="170" y="325" type="line"/>
      <point x="65" y="325" type="line"/>
    </contour>
  </outline>
  <guideline angle="90" x="25" y="0"/>
  <guideline angle="90" x="225" y="0"/>
</glyph>
<glyph name="F.alt" format="2">
  <advance width="220"/>
  <outline>
    <contour>
      <point x="55" y="0" type="line"/>
      <point x="95" y="0" type="line"/>
      <point x="95" y="590" type="line"/>
      <point x="55" y="590" type="line"/>
    </contour>
    <contour>
      <point x="95" y="555" type="line"/>
      <point x="185" y="555" type="line"/>
      <point x="185" y="590" type="line"/>
      <point x="95" y="590" type="line"/>
    </contour>
    <contour>
      <point x="65" y="290" type="line"/>
      <point x="170" y="290" type="line"/>
      <point x="170" y="325" type="line"/>
      <point x="65" y="325" type="line"/>
    </contour>
  </outline>
  <guideline angle="0" x="0" y="382"/>
</glyph>
<glyph name="H.alt" format="2">
  <advance width="300"/>
  <outline>
    <contour>
      <point x="55" y="0" type="line"/>
      <point x="95" y="0" type="line"/>
      <point x="95" y="590" type="line"/>
      <point x="55" y="590" type="line"/>
    </contour>
    <contour>
      <point x="205" y="0" type="line"/>
      <point x="245" y="0" type="line"/>
      <point x="245" y="590" type="line"/>
      <point x="205" y="590" type="line"/>
    </contour>
    <contour>
      <point x="75" y="295" type="line"/>
      <point x="225" y="295" type="line"/>
      <point x="225" y="330" type="line"/>
      <point x="75" y="330" type="line"/>
    </contour>
  </outline>
</glyph>
<glyph name="J.alt" format="2">
  <advance width="300"/>
  <outline>
    <contour>
      <point x="205" y="590" type="line"/>
      <point x="205" y="105" type="line" smooth="yes"/>
      <point x="205" y="55"/>
      <point x="190" y="25"/>
      <point x="150" y="25" type="curve" smooth="yes"/>
      <point x="112" y="25"/>
      <point x="95" y="53"/>
      <point x="95" y="105" type="curve" smooth="yes"/>
      <point x="95" y="265" type="line"/>
      <point x="55" y="265" type="line"/>
      <point x="55" y="115" type="line" smooth="yes"/>
      <point x="55" y="25"/>
      <point x="93" y="-10"/>
      <point x="150" y="-10" type="curve" smooth="yes"/>
      <point x="211" y="-10"/>
      <point x="245" y="31"/>
      <point x="245" y="115" type="curve" smooth="yes"/>
      <point x="245" y="590" type="line"/>
    </contour>
  </outline>
  <guideline angle="0" x="0" y="125"/>
  <guideline angle="90" x="25" y="0"/>
  <guideline angle="90" x="125" y="0"/>
  <guideline angle="90" x="175" y="0"/>
  <guideline angle="90" x="275" y="0"/>
</glyph>
<glyph name="K.alt" format="2">
  <advance width="290"/>
  <outline>
    <contour>
      <point x="219" y="0" type="line"/>
      <point x="260" y="0" type="line"/>
      <point x="160" y="345" type="line"/>
      <point x="250" y="590" type="line"/>
      <point x="209" y="590" type="line"/>
      <point x="105" y="309" type="line" smooth="yes"/>
      <point x="97" y="288"/>
      <point x="91" y="259"/>
      <point x="91" y="259" type="curve"/>
      <point x="89" y="259" type="line"/>
      <point x="89" y="259"/>
      <point x="95" y="294"/>
      <point x="95" y="311" type="curve" smooth="yes"/>
      <point x="95" y="590" type="line"/>
      <point x="55" y="590" type="line"/>
      <point x="55" y="0" type="line"/>
      <point x="95" y="0" type="line"/>
      <point x="95" y="186" type="line"/>
      <point x="135" y="304" type="line"/>
    </contour>
  </outline>
</glyph>
<glyph name="L.alt" format="2">
  <advance width="215"/>
  <outline>
    <contour>
      <point x="55" y="0" type="line"/>
      <point x="95" y="0" type="line"/>
      <point x="95" y="590" type="line"/>
      <point x="55" y="590" type="line"/>
    </contour>
    <contour>
      <point x="95" y="0" type="line"/>
      <point x="175" y="0" type="line"/>
      <point x="175" y="35" type="line"/>
      <point x="95" y="35" type="line"/>
    </contour>
  </outline>
</glyph>
<glyph name="M.alt" format="2">
  <advance width="370"/>
  <outline>
    <contour>
      <point x="184" y="106" type="line"/>
      <point x="184" y="106"/>
      <point x="180" y="170"/>
      <point x="176" y="193" type="curve" smooth="yes"/>
      <point x="105" y="590" type="line"/>
      <point x="65" y="590" type="line"/>
      <point x="65" y="0" type="line"/>
      <point x="105" y="0" type="line"/>
      <point x="105" y="208" type="line" smooth="yes"/>
      <point x="105" y="277"/>
      <point x="103" y="385"/>
      <point x="98" y="437" type="curve"/>
      <point x="101" y="438" type="line"/>
      <point x="101" y="438"/>
      <point x="113" y="360"/>
      <point x="123" y="300" type="curve" smooth="yes"/>
      <point x="165" y="52" type="line"/>
      <point x="205" y="52" type="line"/>
      <point x="247" y="300" type="line" smooth="yes"/>
      <point x="257" y="360"/>
      <point x="269" y="438"/>
      <point x="269" y="438" type="curve"/>
      <point x="272" y="437" type="line"/>
      <point x="267" y="385"/>
      <point x="265" y="277"/>
      <point x="265" y="207" type="curve" smooth="yes"/>
      <point x="265" y="0" type="line"/>
      <point x="305" y="0" type="line"/>
      <point x="305" y="590" type="line"/>
      <point x="265" y="590" type="line"/>
      <point x="194" y="193" type="line" smooth="yes"/>
      <point x="190" y="170"/>
      <point x="186" y="106"/>
      <point x="186" y="106" type="curve"/>
    </contour>
  </outline>
  <guideline angle="90" x="95" y="0"/>
  <guideline angle="90" x="275" y="0"/>
  <guideline angle="90" x="185" y="0"/>
</glyph>
<glyph name="N.alt" format="2">
  <advance width="310"/>
  <outline>
    <contour>
      <point x="92" y="457" type="line"/>
      <point x="215" y="0" type="line"/>
      <point x="255" y="0" type="line"/>
      <point x="255" y="590" type="line"/>
      <point x="215" y="590" type="line"/>
      <point x="215" y="309" type="line"/>
      <point x="215" y="209"/>
      <point x="221" y="135"/>
      <point x="221" y="135" type="curve"/>
      <point x="219" y="134" type="line"/>
      <point x="95" y="590" type="line"/>
      <point x="55" y="590" type="line"/>
      <point x="55" y="0" type="line"/>
      <point x="95" y="0" type="line"/>
      <point x="95" y="283" type="line"/>
      <point x="95" y="362"/>
      <point x="90" y="456"/>
      <point x="90" y="456" type="curve"/>
    </contour>
  </outline>
  <guideline angle="90" x="95" y="0"/>
  <guideline angle="90" x="215" y="0"/>
</glyph>
<glyph name="O.alt" format="2">
  <advance width="300"/>
  <outline>
    <contour>
      <point x="150" y="-10" type="curve" smooth="yes"/>
      <point x="211" y="-10"/>
      <point x="245" y="31"/>
      <point x="245" y="115" type="curve" smooth="yes"/>
      <point x="245" y="475" type="line" smooth="yes"/>
      <point x="245" y="567"/>
      <point x="205" y="600"/>
      <point x="150" y="600" type="curve" smooth="yes"/>
      <point x="91" y="600"/>
      <point x="55" y="562"/>
      <point x="55" y="475" type="curve" smooth="yes"/>
      <point x="55" y="115" type="line" smooth="yes"/>
      <point x="55" y="25"/>
      <point x="93" y="-10"/>
    </contour>
    <contour>
      <point x="95" y="485" type="line" smooth="yes"/>
      <point x="95" y="536"/>
      <point x="111" y="565"/>
      <point x="150" y="565" type="curve" smooth="yes"/>
      <point x="189" y="565"/>
      <point x="205" y="536"/>
      <point x="205" y="485" type="curve" smooth="yes"/>
      <point x="205" y="105" type="line" smooth="yes"/>
      <point x="205" y="55"/>
      <point x="190" y="25"/>
      <point x="150" y="25" type="curve" smooth="yes"/>
      <point x="112" y="25"/>
      <point x="95" y="53"/>
      <point x="95" y="105" type="curve" smooth="yes"/>
    </contour>
  </outline>
  <guideline angle="0" x="0" y="610"/>
  <guideline angle="90" x="140" y="0"/>
</glyph>
<glyph name="P.alt" format="2">
  <advance width="300"/>
  <outline>
    <contour>
      <point x="245" y="310" type="curve" smooth="yes"/>
      <point x="245" y="465" type="line" smooth="yes"/>
      <point x="245" y="555"/>
      <point x="207" y="590"/>
      <point x="150" y="590" type="curve" smooth="yes"/>
      <point x="55" y="590" type="line"/>
      <point x="55" y="185" type="line"/>
      <point x="150" y="185" type="line" smooth="yes"/>
      <point x="207" y="185"/>
      <point x="245" y="220"/>
    </contour>
    <contour>
      <point x="95" y="555" type="line"/>
      <point x="150" y="555" type="line" smooth="yes"/>
      <point x="188" y="555"/>
      <point x="205" y="528"/>
      <point x="205" y="475" type="curve" smooth="yes"/>
      <point x="205" y="300" type="line" smooth="yes"/>
      <point x="205" y="247"/>
      <point x="188" y="220"/>
      <point x="150" y="220" type="curve" smooth="yes"/>
      <point x="95" y="220" type="line"/>
    </contour>
    <contour>
      <point x="55" y="0" type="line"/>
      <point x="95" y="0" type="line"/>
      <point x="95" y="185" type="line"/>
      <point x="55" y="185" type="line"/>
    </contour>
  </outline>
  <guideline angle="90" x="55" y="0"/>
  <guideline angle="90" x="95" y="0"/>
</glyph>
<glyph name="Q.alt" format="2">
  <advance width="300"/>
  <outline>
    <component base="O.alt"/>
    <contour>
      <point x="130" y="-65" type="line"/>
      <point x="170" y="-65" type="line"/>
      <point x="170" y="20" type="line"/>
      <point x="130" y="20" type="line"/>
    </contour>
  </outline>
  <guideline angle="0" x="0" y="125"/>
  <guideline angle="90" x="25" y="0"/>
  <guideline angle="90" x="125" y="0"/>
  <guideline angle="90" x="175" y="0"/>
  <guideline angle="90" x="275" y="0"/>
</glyph>
<glyph name="R.alt" format="2">
  <advance width="300"/>
  <outline>
    <contour>
      <point x="227" y="0" type="line"/>
      <point x="265" y="0" type="line"/>
      <point x="243" y="84" type="line" smooth="yes"/>
      <point x="219" y="177"/>
      <point x="195" y="224"/>
      <point x="195" y="224" type="curve"/>
      <point x="167" y="224" type="line"/>
    </contour>
    <contour>
      <point x="245" y="329" type="curve" smooth="yes"/>
      <point x="245" y="465" type="line" smooth="yes"/>
      <point x="245" y="555"/>
      <point x="207" y="590"/>
      <point x="150" y="590" type="curve" smooth="yes"/>
      <point x="55" y="590" type="line"/>
      <point x="55" y="204" type="line"/>
      <point x="150" y="204" type="line" smooth="yes"/>
      <point x="207" y="204"/>
      <point x="245" y="239"/>
    </contour>
    <contour>
      <point x="95" y="555" type="line"/>
      <point x="150" y="555" type="line" smooth="yes"/>
      <point x="188" y="555"/>
      <point x="205" y="528"/>
      <point x="205" y="475" type="curve" smooth="yes"/>
      <point x="205" y="319" type="line" smooth="yes"/>
      <point x="205" y="266"/>
      <point x="188" y="239"/>
      <point x="150" y="239" type="curve" smooth="yes"/>
      <point x="95" y="239" type="line"/>
    </contour>
    <contour>
      <point x="55" y="0" type="line"/>
      <point x="95" y="0" type="line"/>
      <point x="95" y="204" type="line"/>
      <point x="55" y="204" type="line"/>
    </contour>
  </outline>
  <guideline angle="90" x="175" y="0"/>
  <guideline angle="90" x="275" y="0"/>
</glyph>
<glyph name="S.alt" format="2">
  <advance width="290"/>
  <outline>
    <contour>
      <point x="240" y="429" type="line"/>
      <point x="240" y="475" type="line" smooth="yes"/>
      <point x="240" y="543"/>
      <point x="218" y="600"/>
      <point x="145" y="600" type="curve" smooth="yes"/>
      <point x="72" y="600"/>
      <point x="50" y="543"/>
      <point x="50" y="475" type="curve" smooth="yes"/>
      <point x="50" y="438" type="line" smooth="yes"/>
      <point x="50" y="415"/>
      <point x="59" y="393"/>
      <point x="69" y="381" type="curve"/>
      <point x="188" y="230" type="line" smooth="yes"/>
      <point x="194" y="222"/>
      <point x="200" y="212"/>
      <point x="200" y="196" type="curve" smooth="yes"/>
      <point x="200" y="105" type="line" smooth="yes"/>
      <point x="200" y="51"/>
      <point x="182" y="25"/>
      <point x="145" y="25" type="curve" smooth="yes"/>
      <point x="108" y="25"/>
      <point x="90" y="52"/>
      <point x="90" y="105" type="curve" smooth="yes"/>
      <point x="90" y="220" type="line"/>
      <point x="50" y="220" type="line"/>
      <point x="50" y="115" type="line" smooth="yes"/>
      <point x="50" y="36"/>
      <point x="80" y="-10"/>
      <point x="145" y="-10" type="curve" smooth="yes"/>
      <point x="213" y="-10"/>
      <point x="240" y="40"/>
      <point x="240" y="115" type="curve" smooth="yes"/>
      <point x="240" y="191" type="line" smooth="yes"/>
      <point x="240" y="215"/>
      <point x="233" y="233"/>
      <point x="220" y="249" type="curve" smooth="yes"/>
      <point x="102" y="400" type="line"/>
      <point x="95" y="408"/>
      <point x="90" y="420"/>
      <point x="90" y="433" type="curve" smooth="yes"/>
      <point x="90" y="485" type="line" smooth="yes"/>
      <point x="90" y="542"/>
      <point x="110" y="565"/>
      <point x="145" y="565" type="curve" smooth="yes"/>
      <point x="179" y="565"/>
      <point x="200" y="543"/>
      <point x="200" y="485" type="curve" smooth="yes"/>
      <point x="200" y="429" type="line"/>
    </contour>
  </outline>
  <guideline angle="0" x="0" y="625"/>
  <guideline angle="0" x="0" y="635"/>
  <guideline angle="0" x="0" y="105"/>
  <guideline angle="0" x="0" y="115"/>
</glyph>
<glyph name="T.alt" format="2">
  <advance width="240"/>
  <outline>
    <contour>
      <point x="100" y="0" type="line"/>
      <point x="140" y="0" type="line"/>
      <point x="140" y="590" type="line"/>
      <point x="100" y="590" type="line"/>
    </contour>
    <contour>
      <point x="140" y="555" type="line"/>
      <point x="220" y="555" type="line"/>
      <point x="220" y="590" type="line"/>
      <point x="140" y="590" type="line"/>
    </contour>
    <contour>
      <point x="20" y="555" type="line"/>
      <point x="100" y="555" type="line"/>
      <point x="100" y="590" type="line"/>
      <point x="20" y="590" type="line"/>
    </contour>
  </outline>
</glyph>
<glyph name="U.alt" format="2">
  <advance width="300"/>
  <outline>
    <contour>
      <point x="205" y="590" type="line"/>
      <point x="205" y="105" type="line" smooth="yes"/>
      <point x="205" y="55"/>
      <point x="190" y="25"/>
      <point x="150" y="25" type="curve" smooth="yes"/>
      <point x="112" y="25"/>
      <point x="95" y="53"/>
      <point x="95" y="105" type="curve" smooth="yes"/>
      <point x="95" y="590" type="line"/>
      <point x="55" y="590" type="line"/>
      <point x="55" y="115" type="line" smooth="yes"/>
      <point x="55" y="25"/>
      <point x="93" y="-10"/>
      <point x="150" y="-10" type="curve" smooth="yes"/>
      <point x="211" y="-10"/>
      <point x="245" y="31"/>
      <point x="245" y="115" type="curve" smooth="yes"/>
      <point x="245" y="590" type="line"/>
    </contour>
  </outline>
  <guideline angle="90" x="55" y="0"/>
  <guideline angle="90" x="245" y="0"/>
</glyph>
<glyph name="V.alt" format="2">
  <advance width="280"/>
  <outline>
    <contour>
      <point x="120" y="0" type="line"/>
      <point x="160" y="0" type="line"/>
      <point x="255" y="590" type="line"/>
      <point x="215" y="590" type="line"/>
      <point x="163" y="244" type="line" smooth="yes"/>
      <point x="159" y="215"/>
      <point x="142" y="86"/>
      <point x="142" y="86" type="curve"/>
      <point x="140" y="86" type="line"/>
      <point x="140" y="86"/>
      <point x="123" y="215"/>
      <point x="119" y="244" type="curve" smooth="yes"/>
      <point x="67" y="590" type="line"/>
      <point x="25" y="590" type="line"/>
    </contour>
  </outline>
  <guideline angle="0" x="0" y="175"/>
  <guideline angle="90" x="140" y="0"/>
</glyph>
<glyph name="W.alt" format="2">
  <advance width="380"/>
  <outline>
    <contour>
      <point x="270" y="0" type="line"/>
      <point x="310" y="0" type="line"/>
      <point x="335" y="590" type="line"/>
      <point x="295" y="590" type="line"/>
      <point x="278" y="202" type="line" smooth="yes"/>
      <point x="277" y="177"/>
      <point x="280" y="110"/>
      <point x="280" y="110" type="curve"/>
      <point x="278" y="109" type="line"/>
      <point x="278" y="109"/>
      <point x="270" y="161"/>
      <point x="267" y="175" type="curve"/>
      <point x="210" y="486" type="line"/>
      <point x="170" y="486" type="line"/>
      <point x="112" y="175" type="line"/>
      <point x="109" y="161"/>
      <point x="101" y="109"/>
      <point x="101" y="109" type="curve"/>
      <point x="99" y="110" type="line"/>
      <point x="99" y="110"/>
      <point x="102" y="177"/>
      <point x="101" y="202" type="curve" smooth="yes"/>
      <point x="85" y="590" type="line"/>
      <point x="45" y="590" type="line"/>
      <point x="70" y="0" type="line"/>
      <point x="110" y="0" type="line"/>
      <point x="185" y="367" type="line" smooth="yes"/>
      <point x="188" y="383"/>
      <point x="189" y="418"/>
      <point x="189" y="418" type="curve"/>
      <point x="191" y="418" type="line"/>
      <point x="191" y="418"/>
      <point x="192" y="383"/>
      <point x="195" y="367" type="curve" smooth="yes"/>
    </contour>
  </outline>
  <guideline angle="0" x="0" y="280"/>
  <guideline angle="0" x="0" y="460"/>
  <guideline angle="0" x="0" y="217"/>
  <guideline angle="0" x="0" y="167"/>
</glyph>
<glyph name="X.alt" format="2">
  <advance width="300"/>
  <outline>
    <contour>
      <point x="260" y="590" type="line"/>
      <point x="220" y="590" type="line"/>
      <point x="164" y="407" type="line" smooth="yes"/>
      <point x="155" y="377"/>
      <point x="152" y="348"/>
      <point x="152" y="348" type="curve"/>
      <point x="150" y="348" type="line"/>
      <point x="150" y="348"/>
      <point x="147" y="377"/>
      <point x="138" y="407" type="curve" smooth="yes"/>
      <point x="82" y="590" type="line"/>
      <point x="40" y="590" type="line"/>
      <point x="127" y="310" type="line"/>
      <point x="30" y="0" type="line"/>
      <point x="72" y="0" type="line"/>
      <point x="131" y="195" type="line" smooth="yes"/>
      <point x="139" y="223"/>
      <point x="150" y="273"/>
      <point x="150" y="273" type="curve"/>
      <point x="152" y="273" type="line"/>
      <point x="152" y="273"/>
      <point x="163" y="223"/>
      <point x="171" y="195" type="curve" smooth="yes"/>
      <point x="230" y="0" type="line"/>
      <point x="270" y="0" type="line"/>
      <point x="172" y="310" type="line"/>
    </contour>
  </outline>
  <guideline angle="0" x="0" y="591"/>
  <guideline angle="0" x="0" y="213"/>
  <guideline angle="0" x="0" y="468"/>
  <guideline angle="0" x="0" y="320"/>
  <guideline angle="0" x="0" y="740"/>
  <guideline angle="90" x="30" y="0"/>
  <guideline angle="90" x="270" y="0"/>
</glyph>
<glyph name="Y.alt" format="2">
  <advance width="270"/>
  <outline>
    <contour>
      <point x="115" y="0" type="line"/>
      <point x="155" y="0" type="line"/>
      <point x="155" y="159" type="line"/>
      <point x="240" y="590" type="line"/>
      <point x="199" y="590" type="line"/>
      <point x="146" y="279" type="line" smooth="yes"/>
      <point x="137" y="224"/>
      <point x="136" y="203"/>
      <point x="136" y="203" type="curve"/>
      <point x="134" y="203" type="line"/>
      <point x="134" y="203"/>
      <point x="133" y="224"/>
      <point x="124" y="279" type="curve" smooth="yes"/>
      <point x="71" y="590" type="line"/>
      <point x="30" y="590" type="line"/>
      <point x="115" y="159" type="line"/>
    </contour>
  </outline>
  <guideline angle="0" x="0" y="517"/>
  <guideline angle="0" x="0" y="490"/>
  <guideline angle="0" x="0" y="325"/>
  <guideline angle="90" x="135" y="0"/>
</glyph>
<glyph name="Z.alt" format="2">
  <advance width="230"/>
  <outline>
    <contour>
      <point x="35" y="555" type="line"/>
      <point x="152" y="555" type="line"/>
      <point x="195" y="565" type="line"/>
      <point x="195" y="590" type="line"/>
      <point x="35" y="590" type="line"/>
    </contour>
    <contour>
      <point x="30" y="0" type="line"/>
      <point x="200" y="0" type="line"/>
      <point x="200" y="35" type="line"/>
      <point x="73" y="35" type="line"/>
      <point x="30" y="25" type="line"/>
    </contour>
    <contour>
      <point x="30" y="25" type="line"/>
      <point x="73" y="35" type="line"/>
      <point x="195" y="565" type="line"/>
      <point x="152" y="555" type="line"/>
    </contour>
  </outline>
  <guideline angle="90" x="190" y="0"/>
  <guideline angle="90" x="40" y="0"/>
</glyph>
